<mxfile host="app.diagrams.net" modified="2024-03-31T08:53:30.633Z" agent="Mozilla/5.0 (Windows NT 10.0; Win64; x64) AppleWebKit/537.36 (KHTML, like Gecko) Chrome/123.0.0.0 Safari/537.36" etag="TjZpcWOkFA1wLIbSdx6w" version="24.2.1" type="device">
  <diagram name="Страница — 1" id="ZoIgSz9Eg9tVEiwVGx8c">
    <mxGraphModel dx="2236" dy="1707" grid="1" gridSize="10" guides="1" tooltips="1" connect="1" arrows="1" fold="1" page="1" pageScale="1" pageWidth="1169" pageHeight="827" math="0" shadow="0">
      <root>
        <mxCell id="0" />
        <mxCell id="1" parent="0" />
        <mxCell id="LKfAKdwHeReNHMHKaomZ-3" style="edgeStyle=orthogonalEdgeStyle;rounded=0;orthogonalLoop=1;jettySize=auto;html=1;entryX=0.5;entryY=0;entryDx=0;entryDy=0;fontSize=18;" parent="1" source="LKfAKdwHeReNHMHKaomZ-1" target="LKfAKdwHeReNHMHKaomZ-2" edge="1">
          <mxGeometry relative="1" as="geometry" />
        </mxCell>
        <mxCell id="LKfAKdwHeReNHMHKaomZ-1" value="Н" style="ellipse;whiteSpace=wrap;html=1;fontSize=18;" parent="1" vertex="1">
          <mxGeometry x="270" y="80" width="120" height="80" as="geometry" />
        </mxCell>
        <mxCell id="LKfAKdwHeReNHMHKaomZ-5" style="edgeStyle=orthogonalEdgeStyle;rounded=0;orthogonalLoop=1;jettySize=auto;html=1;fontSize=18;" parent="1" source="LKfAKdwHeReNHMHKaomZ-2" target="LKfAKdwHeReNHMHKaomZ-4" edge="1">
          <mxGeometry relative="1" as="geometry" />
        </mxCell>
        <mxCell id="LKfAKdwHeReNHMHKaomZ-2" value="y1, y2" style="rounded=0;whiteSpace=wrap;html=1;fontSize=18;" parent="1" vertex="1">
          <mxGeometry x="270" y="210" width="120" height="60" as="geometry" />
        </mxCell>
        <mxCell id="LKfAKdwHeReNHMHKaomZ-7" style="edgeStyle=orthogonalEdgeStyle;rounded=0;orthogonalLoop=1;jettySize=auto;html=1;entryX=0.5;entryY=0;entryDx=0;entryDy=0;fontSize=18;" parent="1" source="LKfAKdwHeReNHMHKaomZ-4" target="LKfAKdwHeReNHMHKaomZ-6" edge="1">
          <mxGeometry relative="1" as="geometry" />
        </mxCell>
        <mxCell id="LKfAKdwHeReNHMHKaomZ-4" value="y3, y4" style="rounded=0;whiteSpace=wrap;html=1;fontSize=18;" parent="1" vertex="1">
          <mxGeometry x="270" y="320" width="120" height="60" as="geometry" />
        </mxCell>
        <mxCell id="LKfAKdwHeReNHMHKaomZ-8" style="edgeStyle=orthogonalEdgeStyle;rounded=0;orthogonalLoop=1;jettySize=auto;html=1;fontSize=18;" parent="1" source="LKfAKdwHeReNHMHKaomZ-6" edge="1">
          <mxGeometry relative="1" as="geometry">
            <mxPoint x="330" y="560" as="targetPoint" />
          </mxGeometry>
        </mxCell>
        <mxCell id="LKfAKdwHeReNHMHKaomZ-9" value="0" style="edgeLabel;html=1;align=center;verticalAlign=middle;resizable=0;points=[];fontSize=18;" parent="LKfAKdwHeReNHMHKaomZ-8" vertex="1" connectable="0">
          <mxGeometry x="-0.3083" y="-3" relative="1" as="geometry">
            <mxPoint as="offset" />
          </mxGeometry>
        </mxCell>
        <mxCell id="LKfAKdwHeReNHMHKaomZ-10" style="edgeStyle=orthogonalEdgeStyle;rounded=0;orthogonalLoop=1;jettySize=auto;html=1;fontSize=18;" parent="1" source="LKfAKdwHeReNHMHKaomZ-6" edge="1">
          <mxGeometry relative="1" as="geometry">
            <mxPoint x="430" y="454" as="targetPoint" />
          </mxGeometry>
        </mxCell>
        <mxCell id="LKfAKdwHeReNHMHKaomZ-11" value="1" style="edgeLabel;html=1;align=center;verticalAlign=middle;resizable=0;points=[];fontSize=18;" parent="LKfAKdwHeReNHMHKaomZ-10" vertex="1" connectable="0">
          <mxGeometry x="-0.2728" y="4" relative="1" as="geometry">
            <mxPoint as="offset" />
          </mxGeometry>
        </mxCell>
        <mxCell id="LKfAKdwHeReNHMHKaomZ-6" value="x1" style="rhombus;whiteSpace=wrap;html=1;fontSize=18;" parent="1" vertex="1">
          <mxGeometry x="290" y="414" width="80" height="80" as="geometry" />
        </mxCell>
        <mxCell id="LKfAKdwHeReNHMHKaomZ-14" style="edgeStyle=orthogonalEdgeStyle;rounded=0;orthogonalLoop=1;jettySize=auto;html=1;fontSize=18;" parent="1" source="LKfAKdwHeReNHMHKaomZ-13" edge="1">
          <mxGeometry relative="1" as="geometry">
            <mxPoint x="600" y="454" as="targetPoint" />
          </mxGeometry>
        </mxCell>
        <mxCell id="LKfAKdwHeReNHMHKaomZ-13" value="y5" style="rounded=0;whiteSpace=wrap;html=1;fontSize=18;" parent="1" vertex="1">
          <mxGeometry x="430" y="424" width="120" height="60" as="geometry" />
        </mxCell>
        <mxCell id="LKfAKdwHeReNHMHKaomZ-15" value="1" style="ellipse;whiteSpace=wrap;html=1;aspect=fixed;fontSize=18;" parent="1" vertex="1">
          <mxGeometry x="600" y="414" width="80" height="80" as="geometry" />
        </mxCell>
        <mxCell id="LKfAKdwHeReNHMHKaomZ-18" style="edgeStyle=orthogonalEdgeStyle;rounded=0;orthogonalLoop=1;jettySize=auto;html=1;entryX=0.5;entryY=0;entryDx=0;entryDy=0;fontSize=18;" parent="1" source="LKfAKdwHeReNHMHKaomZ-16" target="LKfAKdwHeReNHMHKaomZ-17" edge="1">
          <mxGeometry relative="1" as="geometry" />
        </mxCell>
        <mxCell id="LKfAKdwHeReNHMHKaomZ-16" value="y6, y7, y8" style="rounded=0;whiteSpace=wrap;html=1;fontSize=18;" parent="1" vertex="1">
          <mxGeometry x="270" y="560" width="120" height="60" as="geometry" />
        </mxCell>
        <mxCell id="LKfAKdwHeReNHMHKaomZ-19" style="edgeStyle=orthogonalEdgeStyle;rounded=0;orthogonalLoop=1;jettySize=auto;html=1;fontSize=18;" parent="1" source="LKfAKdwHeReNHMHKaomZ-17" edge="1">
          <mxGeometry relative="1" as="geometry">
            <mxPoint x="470" y="700" as="targetPoint" />
          </mxGeometry>
        </mxCell>
        <mxCell id="LKfAKdwHeReNHMHKaomZ-20" value="1" style="edgeLabel;html=1;align=center;verticalAlign=middle;resizable=0;points=[];fontSize=18;" parent="LKfAKdwHeReNHMHKaomZ-19" vertex="1" connectable="0">
          <mxGeometry x="-0.1443" y="2" relative="1" as="geometry">
            <mxPoint as="offset" />
          </mxGeometry>
        </mxCell>
        <mxCell id="LKfAKdwHeReNHMHKaomZ-109" style="edgeStyle=orthogonalEdgeStyle;rounded=0;orthogonalLoop=1;jettySize=auto;html=1;entryX=0.5;entryY=0;entryDx=0;entryDy=0;fontSize=18;" parent="1" source="LKfAKdwHeReNHMHKaomZ-17" target="LKfAKdwHeReNHMHKaomZ-111" edge="1">
          <mxGeometry relative="1" as="geometry">
            <mxPoint x="330" y="820" as="targetPoint" />
          </mxGeometry>
        </mxCell>
        <mxCell id="LKfAKdwHeReNHMHKaomZ-110" value="0" style="edgeLabel;html=1;align=center;verticalAlign=middle;resizable=0;points=[];fontSize=18;" parent="LKfAKdwHeReNHMHKaomZ-109" vertex="1" connectable="0">
          <mxGeometry x="-0.3044" y="4" relative="1" as="geometry">
            <mxPoint as="offset" />
          </mxGeometry>
        </mxCell>
        <mxCell id="LKfAKdwHeReNHMHKaomZ-17" value="x2" style="rhombus;whiteSpace=wrap;html=1;fontSize=18;" parent="1" vertex="1">
          <mxGeometry x="290" y="660" width="80" height="80" as="geometry" />
        </mxCell>
        <mxCell id="LKfAKdwHeReNHMHKaomZ-22" style="edgeStyle=orthogonalEdgeStyle;rounded=0;orthogonalLoop=1;jettySize=auto;html=1;fontSize=18;" parent="1" source="LKfAKdwHeReNHMHKaomZ-21" edge="1">
          <mxGeometry relative="1" as="geometry">
            <mxPoint x="510" y="800" as="targetPoint" />
          </mxGeometry>
        </mxCell>
        <mxCell id="LKfAKdwHeReNHMHKaomZ-23" value="0" style="edgeLabel;html=1;align=center;verticalAlign=middle;resizable=0;points=[];fontSize=18;" parent="LKfAKdwHeReNHMHKaomZ-22" vertex="1" connectable="0">
          <mxGeometry x="-0.2067" y="-3" relative="1" as="geometry">
            <mxPoint as="offset" />
          </mxGeometry>
        </mxCell>
        <mxCell id="LKfAKdwHeReNHMHKaomZ-24" style="edgeStyle=orthogonalEdgeStyle;rounded=0;orthogonalLoop=1;jettySize=auto;html=1;fontSize=18;" parent="1" source="LKfAKdwHeReNHMHKaomZ-21" edge="1">
          <mxGeometry relative="1" as="geometry">
            <mxPoint x="620" y="700" as="targetPoint" />
          </mxGeometry>
        </mxCell>
        <mxCell id="LKfAKdwHeReNHMHKaomZ-25" value="1" style="edgeLabel;html=1;align=center;verticalAlign=middle;resizable=0;points=[];fontSize=18;" parent="LKfAKdwHeReNHMHKaomZ-24" vertex="1" connectable="0">
          <mxGeometry x="-0.149" y="2" relative="1" as="geometry">
            <mxPoint as="offset" />
          </mxGeometry>
        </mxCell>
        <mxCell id="LKfAKdwHeReNHMHKaomZ-21" value="x3" style="rhombus;whiteSpace=wrap;html=1;fontSize=18;" parent="1" vertex="1">
          <mxGeometry x="470" y="660" width="80" height="80" as="geometry" />
        </mxCell>
        <mxCell id="LKfAKdwHeReNHMHKaomZ-27" style="edgeStyle=orthogonalEdgeStyle;rounded=0;orthogonalLoop=1;jettySize=auto;html=1;fontSize=18;" parent="1" source="LKfAKdwHeReNHMHKaomZ-26" edge="1">
          <mxGeometry relative="1" as="geometry">
            <mxPoint x="410" y="450" as="targetPoint" />
            <Array as="points">
              <mxPoint x="660" y="570" />
              <mxPoint x="410" y="570" />
            </Array>
          </mxGeometry>
        </mxCell>
        <mxCell id="LKfAKdwHeReNHMHKaomZ-28" value="1" style="edgeLabel;html=1;align=center;verticalAlign=middle;resizable=0;points=[];fontSize=18;" parent="LKfAKdwHeReNHMHKaomZ-27" vertex="1" connectable="0">
          <mxGeometry x="-0.8693" y="3" relative="1" as="geometry">
            <mxPoint as="offset" />
          </mxGeometry>
        </mxCell>
        <mxCell id="LKfAKdwHeReNHMHKaomZ-29" style="edgeStyle=orthogonalEdgeStyle;rounded=0;orthogonalLoop=1;jettySize=auto;html=1;fontSize=18;" parent="1" source="LKfAKdwHeReNHMHKaomZ-26" edge="1">
          <mxGeometry relative="1" as="geometry">
            <mxPoint x="760" y="700" as="targetPoint" />
          </mxGeometry>
        </mxCell>
        <mxCell id="LKfAKdwHeReNHMHKaomZ-30" value="0" style="edgeLabel;html=1;align=center;verticalAlign=middle;resizable=0;points=[];fontSize=18;" parent="LKfAKdwHeReNHMHKaomZ-29" vertex="1" connectable="0">
          <mxGeometry x="-0.1406" y="3" relative="1" as="geometry">
            <mxPoint as="offset" />
          </mxGeometry>
        </mxCell>
        <mxCell id="LKfAKdwHeReNHMHKaomZ-26" value="x4" style="rhombus;whiteSpace=wrap;html=1;fontSize=18;" parent="1" vertex="1">
          <mxGeometry x="620" y="660" width="80" height="80" as="geometry" />
        </mxCell>
        <mxCell id="LKfAKdwHeReNHMHKaomZ-200" style="edgeStyle=orthogonalEdgeStyle;rounded=0;orthogonalLoop=1;jettySize=auto;html=1;entryX=1;entryY=0.5;entryDx=0;entryDy=0;fontSize=18;" parent="1" source="LKfAKdwHeReNHMHKaomZ-31" target="LKfAKdwHeReNHMHKaomZ-201" edge="1">
          <mxGeometry relative="1" as="geometry">
            <mxPoint x="819.9999999999998" y="760" as="targetPoint" />
          </mxGeometry>
        </mxCell>
        <mxCell id="LKfAKdwHeReNHMHKaomZ-31" value="y9" style="rounded=0;whiteSpace=wrap;html=1;fontSize=18;" parent="1" vertex="1">
          <mxGeometry x="760" y="670" width="120" height="60" as="geometry" />
        </mxCell>
        <mxCell id="LKfAKdwHeReNHMHKaomZ-35" style="edgeStyle=orthogonalEdgeStyle;rounded=0;orthogonalLoop=1;jettySize=auto;html=1;fontSize=18;" parent="1" source="LKfAKdwHeReNHMHKaomZ-32" edge="1">
          <mxGeometry relative="1" as="geometry">
            <mxPoint x="510" y="1030" as="targetPoint" />
          </mxGeometry>
        </mxCell>
        <mxCell id="LKfAKdwHeReNHMHKaomZ-36" value="&lt;div style=&quot;font-size: 18px;&quot;&gt;0&lt;/div&gt;" style="edgeLabel;html=1;align=center;verticalAlign=middle;resizable=0;points=[];fontSize=18;" parent="LKfAKdwHeReNHMHKaomZ-35" vertex="1" connectable="0">
          <mxGeometry x="-0.1823" y="-3" relative="1" as="geometry">
            <mxPoint as="offset" />
          </mxGeometry>
        </mxCell>
        <mxCell id="LKfAKdwHeReNHMHKaomZ-37" style="edgeStyle=orthogonalEdgeStyle;rounded=0;orthogonalLoop=1;jettySize=auto;html=1;entryX=0;entryY=0.5;entryDx=0;entryDy=0;fontSize=18;" parent="1" source="LKfAKdwHeReNHMHKaomZ-32" target="LKfAKdwHeReNHMHKaomZ-38" edge="1">
          <mxGeometry relative="1" as="geometry">
            <mxPoint x="610" y="840" as="targetPoint" />
          </mxGeometry>
        </mxCell>
        <mxCell id="LKfAKdwHeReNHMHKaomZ-42" value="1" style="edgeLabel;html=1;align=center;verticalAlign=middle;resizable=0;points=[];fontSize=18;" parent="LKfAKdwHeReNHMHKaomZ-37" vertex="1" connectable="0">
          <mxGeometry x="-0.2" y="4" relative="1" as="geometry">
            <mxPoint as="offset" />
          </mxGeometry>
        </mxCell>
        <mxCell id="LKfAKdwHeReNHMHKaomZ-32" value="x5" style="rhombus;whiteSpace=wrap;html=1;fontSize=18;" parent="1" vertex="1">
          <mxGeometry x="470" y="800" width="80" height="80" as="geometry" />
        </mxCell>
        <mxCell id="LKfAKdwHeReNHMHKaomZ-39" style="edgeStyle=orthogonalEdgeStyle;rounded=0;orthogonalLoop=1;jettySize=auto;html=1;fontSize=18;" parent="1" source="LKfAKdwHeReNHMHKaomZ-38" edge="1">
          <mxGeometry relative="1" as="geometry">
            <mxPoint x="660" y="920" as="targetPoint" />
          </mxGeometry>
        </mxCell>
        <mxCell id="LKfAKdwHeReNHMHKaomZ-41" value="1" style="edgeLabel;html=1;align=center;verticalAlign=middle;resizable=0;points=[];fontSize=18;" parent="LKfAKdwHeReNHMHKaomZ-39" vertex="1" connectable="0">
          <mxGeometry x="-0.4075" y="4" relative="1" as="geometry">
            <mxPoint as="offset" />
          </mxGeometry>
        </mxCell>
        <mxCell id="LKfAKdwHeReNHMHKaomZ-44" style="edgeStyle=orthogonalEdgeStyle;rounded=0;orthogonalLoop=1;jettySize=auto;html=1;fontSize=18;" parent="1" source="LKfAKdwHeReNHMHKaomZ-38" edge="1">
          <mxGeometry relative="1" as="geometry">
            <mxPoint x="810" y="840" as="targetPoint" />
          </mxGeometry>
        </mxCell>
        <mxCell id="LKfAKdwHeReNHMHKaomZ-48" value="0" style="edgeLabel;html=1;align=center;verticalAlign=middle;resizable=0;points=[];fontSize=18;" parent="LKfAKdwHeReNHMHKaomZ-44" vertex="1" connectable="0">
          <mxGeometry x="-0.267" y="2" relative="1" as="geometry">
            <mxPoint as="offset" />
          </mxGeometry>
        </mxCell>
        <mxCell id="LKfAKdwHeReNHMHKaomZ-38" value="x6" style="rhombus;whiteSpace=wrap;html=1;fontSize=18;" parent="1" vertex="1">
          <mxGeometry x="620" y="800" width="80" height="80" as="geometry" />
        </mxCell>
        <mxCell id="LKfAKdwHeReNHMHKaomZ-43" style="edgeStyle=orthogonalEdgeStyle;rounded=0;orthogonalLoop=1;jettySize=auto;html=1;fontSize=18;" parent="1" source="LKfAKdwHeReNHMHKaomZ-40" edge="1">
          <mxGeometry relative="1" as="geometry">
            <mxPoint x="590" y="840" as="targetPoint" />
            <Array as="points">
              <mxPoint x="590" y="950" />
              <mxPoint x="590" y="840" />
            </Array>
          </mxGeometry>
        </mxCell>
        <mxCell id="LKfAKdwHeReNHMHKaomZ-40" value="y10" style="rounded=0;whiteSpace=wrap;html=1;fontSize=18;" parent="1" vertex="1">
          <mxGeometry x="600" y="920" width="120" height="60" as="geometry" />
        </mxCell>
        <mxCell id="LKfAKdwHeReNHMHKaomZ-46" style="edgeStyle=orthogonalEdgeStyle;rounded=0;orthogonalLoop=1;jettySize=auto;html=1;fontSize=18;" parent="1" source="LKfAKdwHeReNHMHKaomZ-45" edge="1">
          <mxGeometry relative="1" as="geometry">
            <mxPoint x="660" y="630" as="targetPoint" />
            <Array as="points">
              <mxPoint x="910" y="840" />
              <mxPoint x="910" y="630" />
            </Array>
          </mxGeometry>
        </mxCell>
        <mxCell id="LKfAKdwHeReNHMHKaomZ-47" value="1" style="edgeLabel;html=1;align=center;verticalAlign=middle;resizable=0;points=[];fontSize=18;" parent="LKfAKdwHeReNHMHKaomZ-46" vertex="1" connectable="0">
          <mxGeometry x="-0.8285" y="-1" relative="1" as="geometry">
            <mxPoint as="offset" />
          </mxGeometry>
        </mxCell>
        <mxCell id="LKfAKdwHeReNHMHKaomZ-49" style="edgeStyle=orthogonalEdgeStyle;rounded=0;orthogonalLoop=1;jettySize=auto;html=1;fontSize=18;" parent="1" source="LKfAKdwHeReNHMHKaomZ-45" edge="1">
          <mxGeometry relative="1" as="geometry">
            <mxPoint x="850" y="960" as="targetPoint" />
          </mxGeometry>
        </mxCell>
        <mxCell id="LKfAKdwHeReNHMHKaomZ-50" value="0" style="edgeLabel;html=1;align=center;verticalAlign=middle;resizable=0;points=[];fontSize=18;" parent="LKfAKdwHeReNHMHKaomZ-49" vertex="1" connectable="0">
          <mxGeometry x="-0.3872" y="1" relative="1" as="geometry">
            <mxPoint as="offset" />
          </mxGeometry>
        </mxCell>
        <mxCell id="LKfAKdwHeReNHMHKaomZ-45" value="x7" style="rhombus;whiteSpace=wrap;html=1;fontSize=18;" parent="1" vertex="1">
          <mxGeometry x="810" y="800" width="80" height="80" as="geometry" />
        </mxCell>
        <mxCell id="LKfAKdwHeReNHMHKaomZ-52" style="edgeStyle=orthogonalEdgeStyle;rounded=0;orthogonalLoop=1;jettySize=auto;html=1;entryX=1;entryY=0.5;entryDx=0;entryDy=0;fontSize=18;" parent="1" source="LKfAKdwHeReNHMHKaomZ-51" target="LKfAKdwHeReNHMHKaomZ-202" edge="1">
          <mxGeometry relative="1" as="geometry">
            <mxPoint x="650" y="1000" as="targetPoint" />
          </mxGeometry>
        </mxCell>
        <mxCell id="LKfAKdwHeReNHMHKaomZ-51" value="y11" style="rounded=0;whiteSpace=wrap;html=1;fontSize=18;" parent="1" vertex="1">
          <mxGeometry x="790" y="960" width="120" height="60" as="geometry" />
        </mxCell>
        <mxCell id="LKfAKdwHeReNHMHKaomZ-54" style="edgeStyle=orthogonalEdgeStyle;rounded=0;orthogonalLoop=1;jettySize=auto;html=1;fontSize=18;" parent="1" source="LKfAKdwHeReNHMHKaomZ-53" edge="1">
          <mxGeometry relative="1" as="geometry">
            <mxPoint x="620" y="1070" as="targetPoint" />
          </mxGeometry>
        </mxCell>
        <mxCell id="LKfAKdwHeReNHMHKaomZ-58" value="1" style="edgeLabel;html=1;align=center;verticalAlign=middle;resizable=0;points=[];fontSize=18;" parent="LKfAKdwHeReNHMHKaomZ-54" vertex="1" connectable="0">
          <mxGeometry x="-0.1821" y="4" relative="1" as="geometry">
            <mxPoint as="offset" />
          </mxGeometry>
        </mxCell>
        <mxCell id="LKfAKdwHeReNHMHKaomZ-61" style="edgeStyle=orthogonalEdgeStyle;rounded=0;orthogonalLoop=1;jettySize=auto;html=1;fontSize=18;" parent="1" source="LKfAKdwHeReNHMHKaomZ-53" edge="1">
          <mxGeometry relative="1" as="geometry">
            <mxPoint x="510" y="1240.0000000000002" as="targetPoint" />
          </mxGeometry>
        </mxCell>
        <mxCell id="LKfAKdwHeReNHMHKaomZ-65" value="0" style="edgeLabel;html=1;align=center;verticalAlign=middle;resizable=0;points=[];fontSize=18;" parent="LKfAKdwHeReNHMHKaomZ-61" vertex="1" connectable="0">
          <mxGeometry x="-0.5793" y="-3" relative="1" as="geometry">
            <mxPoint as="offset" />
          </mxGeometry>
        </mxCell>
        <mxCell id="LKfAKdwHeReNHMHKaomZ-53" value="x8" style="rhombus;whiteSpace=wrap;html=1;fontSize=18;" parent="1" vertex="1">
          <mxGeometry x="470" y="1030" width="80" height="80" as="geometry" />
        </mxCell>
        <mxCell id="LKfAKdwHeReNHMHKaomZ-56" style="edgeStyle=orthogonalEdgeStyle;rounded=0;orthogonalLoop=1;jettySize=auto;html=1;fontSize=18;" parent="1" source="LKfAKdwHeReNHMHKaomZ-55" edge="1">
          <mxGeometry relative="1" as="geometry">
            <mxPoint x="910" y="840" as="targetPoint" />
            <Array as="points">
              <mxPoint x="970" y="1070" />
              <mxPoint x="970" y="840" />
            </Array>
          </mxGeometry>
        </mxCell>
        <mxCell id="LKfAKdwHeReNHMHKaomZ-57" value="1" style="edgeLabel;html=1;align=center;verticalAlign=middle;resizable=0;points=[];fontSize=18;" parent="LKfAKdwHeReNHMHKaomZ-56" vertex="1" connectable="0">
          <mxGeometry x="-0.9" y="1" relative="1" as="geometry">
            <mxPoint as="offset" />
          </mxGeometry>
        </mxCell>
        <mxCell id="LKfAKdwHeReNHMHKaomZ-59" style="edgeStyle=orthogonalEdgeStyle;rounded=0;orthogonalLoop=1;jettySize=auto;html=1;fontSize=18;" parent="1" source="LKfAKdwHeReNHMHKaomZ-55" edge="1">
          <mxGeometry relative="1" as="geometry">
            <mxPoint x="660" y="1150.0000000000002" as="targetPoint" />
          </mxGeometry>
        </mxCell>
        <mxCell id="LKfAKdwHeReNHMHKaomZ-62" value="0" style="edgeLabel;html=1;align=center;verticalAlign=middle;resizable=0;points=[];fontSize=18;" parent="LKfAKdwHeReNHMHKaomZ-59" vertex="1" connectable="0">
          <mxGeometry x="-0.3993" y="4" relative="1" as="geometry">
            <mxPoint as="offset" />
          </mxGeometry>
        </mxCell>
        <mxCell id="LKfAKdwHeReNHMHKaomZ-55" value="x9" style="rhombus;whiteSpace=wrap;html=1;fontSize=18;" parent="1" vertex="1">
          <mxGeometry x="620" y="1030" width="80" height="80" as="geometry" />
        </mxCell>
        <mxCell id="LKfAKdwHeReNHMHKaomZ-204" style="edgeStyle=orthogonalEdgeStyle;rounded=0;orthogonalLoop=1;jettySize=auto;html=1;entryX=0;entryY=0.5;entryDx=0;entryDy=0;fontSize=18;" parent="1" source="LKfAKdwHeReNHMHKaomZ-60" target="LKfAKdwHeReNHMHKaomZ-203" edge="1">
          <mxGeometry relative="1" as="geometry" />
        </mxCell>
        <mxCell id="LKfAKdwHeReNHMHKaomZ-60" value="y9" style="rounded=0;whiteSpace=wrap;html=1;fontSize=18;" parent="1" vertex="1">
          <mxGeometry x="600" y="1150" width="120" height="60" as="geometry" />
        </mxCell>
        <mxCell id="LKfAKdwHeReNHMHKaomZ-71" style="edgeStyle=orthogonalEdgeStyle;rounded=0;orthogonalLoop=1;jettySize=auto;html=1;entryX=0;entryY=0.5;entryDx=0;entryDy=0;fontSize=18;" parent="1" source="LKfAKdwHeReNHMHKaomZ-64" target="LKfAKdwHeReNHMHKaomZ-68" edge="1">
          <mxGeometry relative="1" as="geometry" />
        </mxCell>
        <mxCell id="LKfAKdwHeReNHMHKaomZ-77" value="1" style="edgeLabel;html=1;align=center;verticalAlign=middle;resizable=0;points=[];fontSize=18;" parent="LKfAKdwHeReNHMHKaomZ-71" vertex="1" connectable="0">
          <mxGeometry x="-0.0571" y="2" relative="1" as="geometry">
            <mxPoint as="offset" />
          </mxGeometry>
        </mxCell>
        <mxCell id="LKfAKdwHeReNHMHKaomZ-98" style="edgeStyle=orthogonalEdgeStyle;rounded=0;orthogonalLoop=1;jettySize=auto;html=1;entryX=0.5;entryY=0;entryDx=0;entryDy=0;fontSize=18;" parent="1" source="LKfAKdwHeReNHMHKaomZ-64" target="LKfAKdwHeReNHMHKaomZ-99" edge="1">
          <mxGeometry relative="1" as="geometry">
            <mxPoint x="510" y="1440" as="targetPoint" />
          </mxGeometry>
        </mxCell>
        <mxCell id="BriKxKszXh-SvhqIMzVr-1" value="&lt;span style=&quot;font-size: 18px;&quot;&gt;0&lt;/span&gt;" style="edgeLabel;html=1;align=center;verticalAlign=middle;resizable=0;points=[];fontSize=18;" vertex="1" connectable="0" parent="LKfAKdwHeReNHMHKaomZ-98">
          <mxGeometry x="-0.3216" y="6" relative="1" as="geometry">
            <mxPoint as="offset" />
          </mxGeometry>
        </mxCell>
        <mxCell id="LKfAKdwHeReNHMHKaomZ-64" value="x10" style="rhombus;whiteSpace=wrap;html=1;fontSize=18;" parent="1" vertex="1">
          <mxGeometry x="470" y="1240" width="80" height="80" as="geometry" />
        </mxCell>
        <mxCell id="LKfAKdwHeReNHMHKaomZ-72" style="edgeStyle=orthogonalEdgeStyle;rounded=0;orthogonalLoop=1;jettySize=auto;html=1;entryX=0;entryY=0.5;entryDx=0;entryDy=0;fontSize=18;" parent="1" source="LKfAKdwHeReNHMHKaomZ-68" target="LKfAKdwHeReNHMHKaomZ-69" edge="1">
          <mxGeometry relative="1" as="geometry" />
        </mxCell>
        <mxCell id="LKfAKdwHeReNHMHKaomZ-78" value="0" style="edgeLabel;html=1;align=center;verticalAlign=middle;resizable=0;points=[];fontSize=18;" parent="LKfAKdwHeReNHMHKaomZ-72" vertex="1" connectable="0">
          <mxGeometry x="-0.0286" y="1" relative="1" as="geometry">
            <mxPoint as="offset" />
          </mxGeometry>
        </mxCell>
        <mxCell id="LKfAKdwHeReNHMHKaomZ-85" style="edgeStyle=orthogonalEdgeStyle;rounded=0;orthogonalLoop=1;jettySize=auto;html=1;fontSize=18;" parent="1" source="LKfAKdwHeReNHMHKaomZ-68" edge="1">
          <mxGeometry relative="1" as="geometry">
            <mxPoint x="660" y="1390" as="targetPoint" />
          </mxGeometry>
        </mxCell>
        <mxCell id="LKfAKdwHeReNHMHKaomZ-107" value="1" style="edgeLabel;html=1;align=center;verticalAlign=middle;resizable=0;points=[];fontSize=18;" parent="LKfAKdwHeReNHMHKaomZ-85" vertex="1" connectable="0">
          <mxGeometry x="-0.1348" y="3" relative="1" as="geometry">
            <mxPoint as="offset" />
          </mxGeometry>
        </mxCell>
        <mxCell id="LKfAKdwHeReNHMHKaomZ-68" value="x11" style="rhombus;whiteSpace=wrap;html=1;fontSize=18;" parent="1" vertex="1">
          <mxGeometry x="620" y="1240" width="80" height="80" as="geometry" />
        </mxCell>
        <mxCell id="LKfAKdwHeReNHMHKaomZ-75" style="edgeStyle=orthogonalEdgeStyle;rounded=0;orthogonalLoop=1;jettySize=auto;html=1;entryX=0;entryY=0.5;entryDx=0;entryDy=0;fontSize=18;" parent="1" source="LKfAKdwHeReNHMHKaomZ-69" target="LKfAKdwHeReNHMHKaomZ-74" edge="1">
          <mxGeometry relative="1" as="geometry" />
        </mxCell>
        <mxCell id="LKfAKdwHeReNHMHKaomZ-79" value="0" style="edgeLabel;html=1;align=center;verticalAlign=middle;resizable=0;points=[];fontSize=18;" parent="LKfAKdwHeReNHMHKaomZ-75" vertex="1" connectable="0">
          <mxGeometry x="-0.073" y="2" relative="1" as="geometry">
            <mxPoint as="offset" />
          </mxGeometry>
        </mxCell>
        <mxCell id="LKfAKdwHeReNHMHKaomZ-90" style="edgeStyle=orthogonalEdgeStyle;rounded=0;orthogonalLoop=1;jettySize=auto;html=1;entryX=0.5;entryY=0;entryDx=0;entryDy=0;fontSize=18;" parent="1" source="LKfAKdwHeReNHMHKaomZ-69" target="LKfAKdwHeReNHMHKaomZ-89" edge="1">
          <mxGeometry relative="1" as="geometry" />
        </mxCell>
        <mxCell id="LKfAKdwHeReNHMHKaomZ-108" value="1" style="edgeLabel;html=1;align=center;verticalAlign=middle;resizable=0;points=[];fontSize=18;" parent="LKfAKdwHeReNHMHKaomZ-90" vertex="1" connectable="0">
          <mxGeometry x="-0.2" y="3" relative="1" as="geometry">
            <mxPoint as="offset" />
          </mxGeometry>
        </mxCell>
        <mxCell id="LKfAKdwHeReNHMHKaomZ-69" value="x12" style="rhombus;whiteSpace=wrap;html=1;fontSize=18;" parent="1" vertex="1">
          <mxGeometry x="810" y="1240" width="80" height="80" as="geometry" />
        </mxCell>
        <mxCell id="LKfAKdwHeReNHMHKaomZ-80" style="edgeStyle=orthogonalEdgeStyle;rounded=0;orthogonalLoop=1;jettySize=auto;html=1;fontSize=18;" parent="1" source="LKfAKdwHeReNHMHKaomZ-74" edge="1">
          <mxGeometry relative="1" as="geometry">
            <mxPoint x="970" y="1070" as="targetPoint" />
            <Array as="points">
              <mxPoint x="1020" y="1156" />
              <mxPoint x="990" y="1156" />
              <mxPoint x="990" y="1070" />
            </Array>
          </mxGeometry>
        </mxCell>
        <mxCell id="LKfAKdwHeReNHMHKaomZ-81" value="1" style="edgeLabel;html=1;align=center;verticalAlign=middle;resizable=0;points=[];fontSize=18;" parent="LKfAKdwHeReNHMHKaomZ-80" vertex="1" connectable="0">
          <mxGeometry x="-0.6712" y="-5" relative="1" as="geometry">
            <mxPoint as="offset" />
          </mxGeometry>
        </mxCell>
        <mxCell id="LKfAKdwHeReNHMHKaomZ-82" style="edgeStyle=orthogonalEdgeStyle;rounded=0;orthogonalLoop=1;jettySize=auto;html=1;fontSize=18;" parent="1" source="LKfAKdwHeReNHMHKaomZ-74" edge="1">
          <mxGeometry relative="1" as="geometry">
            <mxPoint x="1020" y="1390" as="targetPoint" />
          </mxGeometry>
        </mxCell>
        <mxCell id="LKfAKdwHeReNHMHKaomZ-83" value="0" style="edgeLabel;html=1;align=center;verticalAlign=middle;resizable=0;points=[];fontSize=18;" parent="LKfAKdwHeReNHMHKaomZ-82" vertex="1" connectable="0">
          <mxGeometry x="-0.1773" y="4" relative="1" as="geometry">
            <mxPoint as="offset" />
          </mxGeometry>
        </mxCell>
        <mxCell id="LKfAKdwHeReNHMHKaomZ-74" value="x13" style="rhombus;whiteSpace=wrap;html=1;fontSize=18;" parent="1" vertex="1">
          <mxGeometry x="980" y="1240" width="80" height="80" as="geometry" />
        </mxCell>
        <mxCell id="LKfAKdwHeReNHMHKaomZ-94" style="edgeStyle=orthogonalEdgeStyle;rounded=0;orthogonalLoop=1;jettySize=auto;html=1;entryX=0.5;entryY=0;entryDx=0;entryDy=0;fontSize=18;" parent="1" source="LKfAKdwHeReNHMHKaomZ-87" target="LKfAKdwHeReNHMHKaomZ-91" edge="1">
          <mxGeometry relative="1" as="geometry" />
        </mxCell>
        <mxCell id="LKfAKdwHeReNHMHKaomZ-87" value="y12, y13" style="rounded=0;whiteSpace=wrap;html=1;fontSize=18;" parent="1" vertex="1">
          <mxGeometry x="600" y="1390" width="120" height="60" as="geometry" />
        </mxCell>
        <mxCell id="LKfAKdwHeReNHMHKaomZ-101" style="edgeStyle=orthogonalEdgeStyle;rounded=0;orthogonalLoop=1;jettySize=auto;html=1;fontSize=18;" parent="1" source="LKfAKdwHeReNHMHKaomZ-88" edge="1">
          <mxGeometry relative="1" as="geometry">
            <mxPoint x="1120.0000000000002" y="1420.0000000000002" as="targetPoint" />
          </mxGeometry>
        </mxCell>
        <mxCell id="LKfAKdwHeReNHMHKaomZ-88" value="y15" style="rounded=0;whiteSpace=wrap;html=1;fontSize=18;" parent="1" vertex="1">
          <mxGeometry x="960" y="1390" width="120" height="60" as="geometry" />
        </mxCell>
        <mxCell id="LKfAKdwHeReNHMHKaomZ-95" style="edgeStyle=orthogonalEdgeStyle;rounded=0;orthogonalLoop=1;jettySize=auto;html=1;fontSize=18;" parent="1" source="LKfAKdwHeReNHMHKaomZ-89" edge="1">
          <mxGeometry relative="1" as="geometry">
            <mxPoint x="750" y="1470" as="targetPoint" />
            <Array as="points">
              <mxPoint x="850" y="1470" />
            </Array>
          </mxGeometry>
        </mxCell>
        <mxCell id="LKfAKdwHeReNHMHKaomZ-89" value="y14, y13" style="rounded=0;whiteSpace=wrap;html=1;fontSize=18;" parent="1" vertex="1">
          <mxGeometry x="790" y="1390" width="120" height="60" as="geometry" />
        </mxCell>
        <mxCell id="LKfAKdwHeReNHMHKaomZ-91" value="6" style="ellipse;whiteSpace=wrap;html=1;aspect=fixed;fontSize=18;" parent="1" vertex="1">
          <mxGeometry x="710" y="1490" width="80" height="80" as="geometry" />
        </mxCell>
        <mxCell id="LKfAKdwHeReNHMHKaomZ-308" style="edgeStyle=orthogonalEdgeStyle;rounded=0;orthogonalLoop=1;jettySize=auto;html=1;fontSize=18;" parent="1" source="LKfAKdwHeReNHMHKaomZ-96" edge="1">
          <mxGeometry relative="1" as="geometry">
            <mxPoint x="329.9999999999998" y="639.9999999999998" as="targetPoint" />
          </mxGeometry>
        </mxCell>
        <mxCell id="LKfAKdwHeReNHMHKaomZ-96" value="6" style="ellipse;whiteSpace=wrap;html=1;aspect=fixed;fontSize=18;" parent="1" vertex="1">
          <mxGeometry x="20" y="600" width="80" height="80" as="geometry" />
        </mxCell>
        <mxCell id="LKfAKdwHeReNHMHKaomZ-100" style="edgeStyle=orthogonalEdgeStyle;rounded=0;orthogonalLoop=1;jettySize=auto;html=1;fontSize=18;" parent="1" source="LKfAKdwHeReNHMHKaomZ-99" edge="1">
          <mxGeometry relative="1" as="geometry">
            <mxPoint x="660" y="1470" as="targetPoint" />
          </mxGeometry>
        </mxCell>
        <mxCell id="LKfAKdwHeReNHMHKaomZ-99" value="y13" style="rounded=0;whiteSpace=wrap;html=1;fontSize=18;" parent="1" vertex="1">
          <mxGeometry x="450" y="1490" width="120" height="60" as="geometry" />
        </mxCell>
        <mxCell id="LKfAKdwHeReNHMHKaomZ-102" value="5" style="ellipse;whiteSpace=wrap;html=1;aspect=fixed;fontSize=18;" parent="1" vertex="1">
          <mxGeometry x="1120" y="1380" width="80" height="80" as="geometry" />
        </mxCell>
        <mxCell id="LKfAKdwHeReNHMHKaomZ-112" style="edgeStyle=orthogonalEdgeStyle;rounded=0;orthogonalLoop=1;jettySize=auto;html=1;fontSize=18;" parent="1" source="LKfAKdwHeReNHMHKaomZ-111" edge="1">
          <mxGeometry relative="1" as="geometry">
            <mxPoint x="210" y="840" as="targetPoint" />
          </mxGeometry>
        </mxCell>
        <mxCell id="LKfAKdwHeReNHMHKaomZ-114" value="1" style="edgeLabel;html=1;align=center;verticalAlign=middle;resizable=0;points=[];fontSize=18;" parent="LKfAKdwHeReNHMHKaomZ-112" vertex="1" connectable="0">
          <mxGeometry x="-0.3044" y="-2" relative="1" as="geometry">
            <mxPoint as="offset" />
          </mxGeometry>
        </mxCell>
        <mxCell id="LKfAKdwHeReNHMHKaomZ-115" style="edgeStyle=orthogonalEdgeStyle;rounded=0;orthogonalLoop=1;jettySize=auto;html=1;fontSize=18;" parent="1" source="LKfAKdwHeReNHMHKaomZ-111" edge="1">
          <mxGeometry relative="1" as="geometry">
            <mxPoint x="330" y="940" as="targetPoint" />
          </mxGeometry>
        </mxCell>
        <mxCell id="LKfAKdwHeReNHMHKaomZ-119" value="0" style="edgeLabel;html=1;align=center;verticalAlign=middle;resizable=0;points=[];fontSize=18;" parent="LKfAKdwHeReNHMHKaomZ-115" vertex="1" connectable="0">
          <mxGeometry x="-0.5372" y="5" relative="1" as="geometry">
            <mxPoint as="offset" />
          </mxGeometry>
        </mxCell>
        <mxCell id="LKfAKdwHeReNHMHKaomZ-111" value="x14" style="rhombus;whiteSpace=wrap;html=1;fontSize=18;" parent="1" vertex="1">
          <mxGeometry x="290" y="800" width="80" height="80" as="geometry" />
        </mxCell>
        <mxCell id="LKfAKdwHeReNHMHKaomZ-113" value="7" style="ellipse;whiteSpace=wrap;html=1;aspect=fixed;fontSize=18;" parent="1" vertex="1">
          <mxGeometry x="130" y="800" width="80" height="80" as="geometry" />
        </mxCell>
        <mxCell id="LKfAKdwHeReNHMHKaomZ-117" style="edgeStyle=orthogonalEdgeStyle;rounded=0;orthogonalLoop=1;jettySize=auto;html=1;fontSize=18;" parent="1" source="LKfAKdwHeReNHMHKaomZ-116" edge="1">
          <mxGeometry relative="1" as="geometry">
            <mxPoint x="230" y="840" as="targetPoint" />
          </mxGeometry>
        </mxCell>
        <mxCell id="LKfAKdwHeReNHMHKaomZ-118" value="1" style="edgeLabel;html=1;align=center;verticalAlign=middle;resizable=0;points=[];fontSize=18;" parent="LKfAKdwHeReNHMHKaomZ-117" vertex="1" connectable="0">
          <mxGeometry x="-0.7393" y="-4" relative="1" as="geometry">
            <mxPoint as="offset" />
          </mxGeometry>
        </mxCell>
        <mxCell id="LKfAKdwHeReNHMHKaomZ-122" style="edgeStyle=orthogonalEdgeStyle;rounded=0;orthogonalLoop=1;jettySize=auto;html=1;fontSize=18;" parent="1" source="LKfAKdwHeReNHMHKaomZ-116" edge="1">
          <mxGeometry relative="1" as="geometry">
            <mxPoint x="330" y="1080" as="targetPoint" />
          </mxGeometry>
        </mxCell>
        <mxCell id="BriKxKszXh-SvhqIMzVr-2" value="&lt;span style=&quot;font-size: 18px;&quot;&gt;0&lt;/span&gt;" style="edgeLabel;html=1;align=center;verticalAlign=middle;resizable=0;points=[];fontSize=18;" vertex="1" connectable="0" parent="LKfAKdwHeReNHMHKaomZ-122">
          <mxGeometry x="-0.5017" y="5" relative="1" as="geometry">
            <mxPoint as="offset" />
          </mxGeometry>
        </mxCell>
        <mxCell id="LKfAKdwHeReNHMHKaomZ-116" value="x15" style="rhombus;whiteSpace=wrap;html=1;fontSize=18;" parent="1" vertex="1">
          <mxGeometry x="290" y="940" width="80" height="80" as="geometry" />
        </mxCell>
        <mxCell id="LKfAKdwHeReNHMHKaomZ-121" style="edgeStyle=orthogonalEdgeStyle;rounded=0;orthogonalLoop=1;jettySize=auto;html=1;fontSize=18;" parent="1" source="LKfAKdwHeReNHMHKaomZ-120" edge="1">
          <mxGeometry relative="1" as="geometry">
            <mxPoint x="410" y="534" as="targetPoint" />
          </mxGeometry>
        </mxCell>
        <mxCell id="LKfAKdwHeReNHMHKaomZ-120" value="7" style="ellipse;whiteSpace=wrap;html=1;aspect=fixed;fontSize=18;" parent="1" vertex="1">
          <mxGeometry x="680" y="494" width="80" height="80" as="geometry" />
        </mxCell>
        <mxCell id="LKfAKdwHeReNHMHKaomZ-124" style="edgeStyle=orthogonalEdgeStyle;rounded=0;orthogonalLoop=1;jettySize=auto;html=1;fontSize=18;" parent="1" source="LKfAKdwHeReNHMHKaomZ-123" edge="1">
          <mxGeometry relative="1" as="geometry">
            <mxPoint x="220" y="1120" as="targetPoint" />
          </mxGeometry>
        </mxCell>
        <mxCell id="LKfAKdwHeReNHMHKaomZ-125" value="1" style="edgeLabel;html=1;align=center;verticalAlign=middle;resizable=0;points=[];fontSize=18;" parent="LKfAKdwHeReNHMHKaomZ-124" vertex="1" connectable="0">
          <mxGeometry x="-0.2057" y="-4" relative="1" as="geometry">
            <mxPoint as="offset" />
          </mxGeometry>
        </mxCell>
        <mxCell id="LKfAKdwHeReNHMHKaomZ-128" style="edgeStyle=orthogonalEdgeStyle;rounded=0;orthogonalLoop=1;jettySize=auto;html=1;fontSize=18;" parent="1" source="LKfAKdwHeReNHMHKaomZ-123" edge="1">
          <mxGeometry relative="1" as="geometry">
            <mxPoint x="330" y="1210" as="targetPoint" />
          </mxGeometry>
        </mxCell>
        <mxCell id="LKfAKdwHeReNHMHKaomZ-129" value="0" style="edgeLabel;html=1;align=center;verticalAlign=middle;resizable=0;points=[];fontSize=18;" parent="LKfAKdwHeReNHMHKaomZ-128" vertex="1" connectable="0">
          <mxGeometry x="-0.2815" y="1" relative="1" as="geometry">
            <mxPoint as="offset" />
          </mxGeometry>
        </mxCell>
        <mxCell id="LKfAKdwHeReNHMHKaomZ-123" value="x16" style="rhombus;whiteSpace=wrap;html=1;fontSize=18;" parent="1" vertex="1">
          <mxGeometry x="290" y="1080" width="80" height="80" as="geometry" />
        </mxCell>
        <mxCell id="LKfAKdwHeReNHMHKaomZ-127" style="edgeStyle=orthogonalEdgeStyle;rounded=0;orthogonalLoop=1;jettySize=auto;html=1;fontSize=18;" parent="1" source="LKfAKdwHeReNHMHKaomZ-126" edge="1">
          <mxGeometry relative="1" as="geometry">
            <mxPoint x="330" y="1060" as="targetPoint" />
            <Array as="points">
              <mxPoint x="160" y="1060" />
              <mxPoint x="330" y="1060" />
            </Array>
          </mxGeometry>
        </mxCell>
        <mxCell id="LKfAKdwHeReNHMHKaomZ-126" value="y10" style="rounded=0;whiteSpace=wrap;html=1;fontSize=18;" parent="1" vertex="1">
          <mxGeometry x="100" y="1090" width="120" height="60" as="geometry" />
        </mxCell>
        <mxCell id="LKfAKdwHeReNHMHKaomZ-131" style="edgeStyle=orthogonalEdgeStyle;rounded=0;orthogonalLoop=1;jettySize=auto;html=1;fontSize=18;" parent="1" source="LKfAKdwHeReNHMHKaomZ-130" edge="1">
          <mxGeometry relative="1" as="geometry">
            <mxPoint x="330" y="1320" as="targetPoint" />
          </mxGeometry>
        </mxCell>
        <mxCell id="LKfAKdwHeReNHMHKaomZ-130" value="y16, y17" style="rounded=0;whiteSpace=wrap;html=1;fontSize=18;" parent="1" vertex="1">
          <mxGeometry x="270" y="1210" width="120" height="60" as="geometry" />
        </mxCell>
        <mxCell id="LKfAKdwHeReNHMHKaomZ-132" value="8" style="ellipse;whiteSpace=wrap;html=1;aspect=fixed;fontSize=18;" parent="1" vertex="1">
          <mxGeometry x="290" y="1320" width="80" height="80" as="geometry" />
        </mxCell>
        <mxCell id="LKfAKdwHeReNHMHKaomZ-139" style="edgeStyle=orthogonalEdgeStyle;rounded=0;orthogonalLoop=1;jettySize=auto;html=1;fontSize=18;" parent="1" source="LKfAKdwHeReNHMHKaomZ-133" edge="1">
          <mxGeometry relative="1" as="geometry">
            <mxPoint x="1791" y="443.9999999999999" as="targetPoint" />
          </mxGeometry>
        </mxCell>
        <mxCell id="LKfAKdwHeReNHMHKaomZ-143" value="1" style="edgeLabel;html=1;align=center;verticalAlign=middle;resizable=0;points=[];fontSize=18;" parent="LKfAKdwHeReNHMHKaomZ-139" vertex="1" connectable="0">
          <mxGeometry x="-0.1175" y="3" relative="1" as="geometry">
            <mxPoint as="offset" />
          </mxGeometry>
        </mxCell>
        <mxCell id="LKfAKdwHeReNHMHKaomZ-144" style="edgeStyle=orthogonalEdgeStyle;rounded=0;orthogonalLoop=1;jettySize=auto;html=1;fontSize=18;" parent="1" source="LKfAKdwHeReNHMHKaomZ-133" edge="1">
          <mxGeometry relative="1" as="geometry">
            <mxPoint x="1701" y="550" as="targetPoint" />
          </mxGeometry>
        </mxCell>
        <mxCell id="LKfAKdwHeReNHMHKaomZ-145" value="0" style="edgeLabel;html=1;align=center;verticalAlign=middle;resizable=0;points=[];fontSize=18;" parent="LKfAKdwHeReNHMHKaomZ-144" vertex="1" connectable="0">
          <mxGeometry x="-0.1021" y="3" relative="1" as="geometry">
            <mxPoint as="offset" />
          </mxGeometry>
        </mxCell>
        <mxCell id="LKfAKdwHeReNHMHKaomZ-133" value="x17" style="rhombus;whiteSpace=wrap;html=1;fontSize=18;" parent="1" vertex="1">
          <mxGeometry x="1661" y="404" width="80" height="80" as="geometry" />
        </mxCell>
        <mxCell id="LKfAKdwHeReNHMHKaomZ-136" style="edgeStyle=orthogonalEdgeStyle;rounded=0;orthogonalLoop=1;jettySize=auto;html=1;entryX=0;entryY=0.5;entryDx=0;entryDy=0;fontSize=18;" parent="1" source="LKfAKdwHeReNHMHKaomZ-134" target="LKfAKdwHeReNHMHKaomZ-133" edge="1">
          <mxGeometry relative="1" as="geometry" />
        </mxCell>
        <mxCell id="LKfAKdwHeReNHMHKaomZ-134" value="1" style="ellipse;whiteSpace=wrap;html=1;aspect=fixed;fontSize=18;" parent="1" vertex="1">
          <mxGeometry x="1431" y="344" width="80" height="80" as="geometry" />
        </mxCell>
        <mxCell id="LKfAKdwHeReNHMHKaomZ-138" style="edgeStyle=orthogonalEdgeStyle;rounded=0;orthogonalLoop=1;jettySize=auto;html=1;fontSize=18;" parent="1" source="LKfAKdwHeReNHMHKaomZ-135" edge="1">
          <mxGeometry relative="1" as="geometry">
            <mxPoint x="1591" y="440" as="targetPoint" />
          </mxGeometry>
        </mxCell>
        <mxCell id="LKfAKdwHeReNHMHKaomZ-135" value="8" style="ellipse;whiteSpace=wrap;html=1;aspect=fixed;fontSize=18;" parent="1" vertex="1">
          <mxGeometry x="1431" y="450" width="80" height="80" as="geometry" />
        </mxCell>
        <mxCell id="LKfAKdwHeReNHMHKaomZ-141" style="edgeStyle=orthogonalEdgeStyle;rounded=0;orthogonalLoop=1;jettySize=auto;html=1;fontSize=18;" parent="1" source="LKfAKdwHeReNHMHKaomZ-140" edge="1">
          <mxGeometry relative="1" as="geometry">
            <mxPoint x="1961" y="443.9999999999999" as="targetPoint" />
          </mxGeometry>
        </mxCell>
        <mxCell id="LKfAKdwHeReNHMHKaomZ-140" value="y18" style="rounded=0;whiteSpace=wrap;html=1;fontSize=18;" parent="1" vertex="1">
          <mxGeometry x="1791" y="414" width="120" height="60" as="geometry" />
        </mxCell>
        <mxCell id="LKfAKdwHeReNHMHKaomZ-142" value="9" style="ellipse;whiteSpace=wrap;html=1;aspect=fixed;fontSize=18;" parent="1" vertex="1">
          <mxGeometry x="1961" y="404" width="80" height="80" as="geometry" />
        </mxCell>
        <mxCell id="LKfAKdwHeReNHMHKaomZ-147" style="edgeStyle=orthogonalEdgeStyle;rounded=0;orthogonalLoop=1;jettySize=auto;html=1;fontSize=18;" parent="1" source="LKfAKdwHeReNHMHKaomZ-146" edge="1">
          <mxGeometry relative="1" as="geometry">
            <mxPoint x="1701" y="680" as="targetPoint" />
          </mxGeometry>
        </mxCell>
        <mxCell id="LKfAKdwHeReNHMHKaomZ-146" value="y19, y6" style="rounded=0;whiteSpace=wrap;html=1;fontSize=18;" parent="1" vertex="1">
          <mxGeometry x="1641" y="550" width="120" height="60" as="geometry" />
        </mxCell>
        <mxCell id="LKfAKdwHeReNHMHKaomZ-149" style="edgeStyle=orthogonalEdgeStyle;rounded=0;orthogonalLoop=1;jettySize=auto;html=1;fontSize=18;" parent="1" source="LKfAKdwHeReNHMHKaomZ-148" edge="1">
          <mxGeometry relative="1" as="geometry">
            <mxPoint x="1701" y="820" as="targetPoint" />
          </mxGeometry>
        </mxCell>
        <mxCell id="LKfAKdwHeReNHMHKaomZ-150" value="0" style="edgeLabel;html=1;align=center;verticalAlign=middle;resizable=0;points=[];fontSize=18;" parent="LKfAKdwHeReNHMHKaomZ-149" vertex="1" connectable="0">
          <mxGeometry x="-0.0697" y="-3" relative="1" as="geometry">
            <mxPoint as="offset" />
          </mxGeometry>
        </mxCell>
        <mxCell id="LKfAKdwHeReNHMHKaomZ-157" style="edgeStyle=orthogonalEdgeStyle;rounded=0;orthogonalLoop=1;jettySize=auto;html=1;fontSize=18;" parent="1" source="LKfAKdwHeReNHMHKaomZ-148" edge="1">
          <mxGeometry relative="1" as="geometry">
            <mxPoint x="1871" y="720" as="targetPoint" />
          </mxGeometry>
        </mxCell>
        <mxCell id="LKfAKdwHeReNHMHKaomZ-163" value="1" style="edgeLabel;html=1;align=center;verticalAlign=middle;resizable=0;points=[];fontSize=18;" parent="LKfAKdwHeReNHMHKaomZ-157" vertex="1" connectable="0">
          <mxGeometry x="-0.0827" relative="1" as="geometry">
            <mxPoint as="offset" />
          </mxGeometry>
        </mxCell>
        <mxCell id="LKfAKdwHeReNHMHKaomZ-148" value="x18" style="rhombus;whiteSpace=wrap;html=1;fontSize=18;" parent="1" vertex="1">
          <mxGeometry x="1661" y="680" width="80" height="80" as="geometry" />
        </mxCell>
        <mxCell id="LKfAKdwHeReNHMHKaomZ-152" style="edgeStyle=orthogonalEdgeStyle;rounded=0;orthogonalLoop=1;jettySize=auto;html=1;entryX=0.5;entryY=0;entryDx=0;entryDy=0;fontSize=18;" parent="1" source="LKfAKdwHeReNHMHKaomZ-151" target="LKfAKdwHeReNHMHKaomZ-153" edge="1">
          <mxGeometry relative="1" as="geometry">
            <mxPoint x="1701" y="930" as="targetPoint" />
          </mxGeometry>
        </mxCell>
        <mxCell id="LKfAKdwHeReNHMHKaomZ-151" value="y33" style="rounded=0;whiteSpace=wrap;html=1;fontSize=18;" parent="1" vertex="1">
          <mxGeometry x="1641" y="820" width="120" height="60" as="geometry" />
        </mxCell>
        <mxCell id="LKfAKdwHeReNHMHKaomZ-153" value="К" style="ellipse;whiteSpace=wrap;html=1;fontSize=18;" parent="1" vertex="1">
          <mxGeometry x="1641" y="980" width="120" height="80" as="geometry" />
        </mxCell>
        <mxCell id="LKfAKdwHeReNHMHKaomZ-332" style="edgeStyle=orthogonalEdgeStyle;rounded=0;orthogonalLoop=1;jettySize=auto;html=1;fontSize=18;" parent="1" source="LKfAKdwHeReNHMHKaomZ-154" edge="1">
          <mxGeometry relative="1" as="geometry">
            <mxPoint x="1701" y="919.9999999999998" as="targetPoint" />
            <Array as="points">
              <mxPoint x="1621" y="1010" />
              <mxPoint x="1621" y="920" />
            </Array>
          </mxGeometry>
        </mxCell>
        <mxCell id="LKfAKdwHeReNHMHKaomZ-154" value="9" style="ellipse;whiteSpace=wrap;html=1;aspect=fixed;fontSize=18;" parent="1" vertex="1">
          <mxGeometry x="1290" y="990" width="80" height="80" as="geometry" />
        </mxCell>
        <mxCell id="LKfAKdwHeReNHMHKaomZ-159" style="edgeStyle=orthogonalEdgeStyle;rounded=0;orthogonalLoop=1;jettySize=auto;html=1;fontSize=18;" parent="1" source="LKfAKdwHeReNHMHKaomZ-158" edge="1">
          <mxGeometry relative="1" as="geometry">
            <mxPoint x="2011" y="720" as="targetPoint" />
          </mxGeometry>
        </mxCell>
        <mxCell id="LKfAKdwHeReNHMHKaomZ-164" value="1" style="edgeLabel;html=1;align=center;verticalAlign=middle;resizable=0;points=[];fontSize=18;" parent="LKfAKdwHeReNHMHKaomZ-159" vertex="1" connectable="0">
          <mxGeometry x="-0.1524" y="4" relative="1" as="geometry">
            <mxPoint as="offset" />
          </mxGeometry>
        </mxCell>
        <mxCell id="LKfAKdwHeReNHMHKaomZ-161" style="edgeStyle=orthogonalEdgeStyle;rounded=0;orthogonalLoop=1;jettySize=auto;html=1;fontSize=18;" parent="1" source="LKfAKdwHeReNHMHKaomZ-158" edge="1">
          <mxGeometry relative="1" as="geometry">
            <mxPoint x="1911" y="820" as="targetPoint" />
          </mxGeometry>
        </mxCell>
        <mxCell id="LKfAKdwHeReNHMHKaomZ-165" value="0" style="edgeLabel;html=1;align=center;verticalAlign=middle;resizable=0;points=[];fontSize=18;" parent="LKfAKdwHeReNHMHKaomZ-161" vertex="1" connectable="0">
          <mxGeometry x="-0.3514" y="-4" relative="1" as="geometry">
            <mxPoint as="offset" />
          </mxGeometry>
        </mxCell>
        <mxCell id="LKfAKdwHeReNHMHKaomZ-158" value="x19" style="rhombus;whiteSpace=wrap;html=1;fontSize=18;" parent="1" vertex="1">
          <mxGeometry x="1871" y="680" width="80" height="80" as="geometry" />
        </mxCell>
        <mxCell id="LKfAKdwHeReNHMHKaomZ-334" style="edgeStyle=orthogonalEdgeStyle;rounded=0;orthogonalLoop=1;jettySize=auto;html=1;fontSize=18;" parent="1" source="LKfAKdwHeReNHMHKaomZ-160" edge="1">
          <mxGeometry relative="1" as="geometry">
            <mxPoint x="2181" y="719.9999999999998" as="targetPoint" />
          </mxGeometry>
        </mxCell>
        <mxCell id="LKfAKdwHeReNHMHKaomZ-160" value="y20" style="rounded=0;whiteSpace=wrap;html=1;fontSize=18;" parent="1" vertex="1">
          <mxGeometry x="2011" y="690" width="120" height="60" as="geometry" />
        </mxCell>
        <mxCell id="LKfAKdwHeReNHMHKaomZ-169" style="edgeStyle=orthogonalEdgeStyle;rounded=0;orthogonalLoop=1;jettySize=auto;html=1;entryX=0.5;entryY=0;entryDx=0;entryDy=0;fontSize=18;" parent="1" source="LKfAKdwHeReNHMHKaomZ-167" target="LKfAKdwHeReNHMHKaomZ-168" edge="1">
          <mxGeometry relative="1" as="geometry" />
        </mxCell>
        <mxCell id="LKfAKdwHeReNHMHKaomZ-167" value="y21, y22" style="rounded=0;whiteSpace=wrap;html=1;fontSize=18;" parent="1" vertex="1">
          <mxGeometry x="1851" y="820" width="120" height="60" as="geometry" />
        </mxCell>
        <mxCell id="LKfAKdwHeReNHMHKaomZ-170" style="edgeStyle=orthogonalEdgeStyle;rounded=0;orthogonalLoop=1;jettySize=auto;html=1;entryX=0;entryY=0.5;entryDx=0;entryDy=0;fontSize=18;" parent="1" source="LKfAKdwHeReNHMHKaomZ-168" target="LKfAKdwHeReNHMHKaomZ-171" edge="1">
          <mxGeometry relative="1" as="geometry">
            <mxPoint x="1991" y="950" as="targetPoint" />
          </mxGeometry>
        </mxCell>
        <mxCell id="LKfAKdwHeReNHMHKaomZ-172" value="1" style="edgeLabel;html=1;align=center;verticalAlign=middle;resizable=0;points=[];fontSize=18;" parent="LKfAKdwHeReNHMHKaomZ-170" vertex="1" connectable="0">
          <mxGeometry x="-0.1143" y="3" relative="1" as="geometry">
            <mxPoint y="3" as="offset" />
          </mxGeometry>
        </mxCell>
        <mxCell id="LKfAKdwHeReNHMHKaomZ-175" style="edgeStyle=orthogonalEdgeStyle;rounded=0;orthogonalLoop=1;jettySize=auto;html=1;fontSize=18;" parent="1" source="LKfAKdwHeReNHMHKaomZ-168" edge="1">
          <mxGeometry relative="1" as="geometry">
            <mxPoint x="1911" y="1060" as="targetPoint" />
          </mxGeometry>
        </mxCell>
        <mxCell id="LKfAKdwHeReNHMHKaomZ-183" value="0" style="edgeLabel;html=1;align=center;verticalAlign=middle;resizable=0;points=[];fontSize=18;" parent="LKfAKdwHeReNHMHKaomZ-175" vertex="1" connectable="0">
          <mxGeometry x="-0.1206" y="2" relative="1" as="geometry">
            <mxPoint as="offset" />
          </mxGeometry>
        </mxCell>
        <mxCell id="LKfAKdwHeReNHMHKaomZ-168" value="x20" style="rhombus;whiteSpace=wrap;html=1;fontSize=18;" parent="1" vertex="1">
          <mxGeometry x="1871" y="910" width="80" height="80" as="geometry" />
        </mxCell>
        <mxCell id="LKfAKdwHeReNHMHKaomZ-173" style="edgeStyle=orthogonalEdgeStyle;rounded=0;orthogonalLoop=1;jettySize=auto;html=1;fontSize=18;" parent="1" source="LKfAKdwHeReNHMHKaomZ-171" edge="1">
          <mxGeometry relative="1" as="geometry">
            <mxPoint x="2181" y="950" as="targetPoint" />
          </mxGeometry>
        </mxCell>
        <mxCell id="LKfAKdwHeReNHMHKaomZ-171" value="y23" style="rounded=0;whiteSpace=wrap;html=1;fontSize=18;" parent="1" vertex="1">
          <mxGeometry x="2011" y="920" width="120" height="60" as="geometry" />
        </mxCell>
        <mxCell id="LKfAKdwHeReNHMHKaomZ-174" value="11" style="ellipse;whiteSpace=wrap;html=1;aspect=fixed;fontSize=18;" parent="1" vertex="1">
          <mxGeometry x="2181" y="910" width="80" height="80" as="geometry" />
        </mxCell>
        <mxCell id="LKfAKdwHeReNHMHKaomZ-177" style="edgeStyle=orthogonalEdgeStyle;rounded=0;orthogonalLoop=1;jettySize=auto;html=1;entryX=0;entryY=0.5;entryDx=0;entryDy=0;fontSize=18;" parent="1" source="LKfAKdwHeReNHMHKaomZ-176" target="LKfAKdwHeReNHMHKaomZ-178" edge="1">
          <mxGeometry relative="1" as="geometry">
            <mxPoint x="2001" y="1100" as="targetPoint" />
          </mxGeometry>
        </mxCell>
        <mxCell id="LKfAKdwHeReNHMHKaomZ-184" value="1" style="edgeLabel;html=1;align=center;verticalAlign=middle;resizable=0;points=[];fontSize=18;" parent="LKfAKdwHeReNHMHKaomZ-177" vertex="1" connectable="0">
          <mxGeometry x="-0.1857" y="3" relative="1" as="geometry">
            <mxPoint as="offset" />
          </mxGeometry>
        </mxCell>
        <mxCell id="LKfAKdwHeReNHMHKaomZ-182" style="edgeStyle=orthogonalEdgeStyle;rounded=0;orthogonalLoop=1;jettySize=auto;html=1;entryX=0.5;entryY=0;entryDx=0;entryDy=0;fontSize=18;" parent="1" source="LKfAKdwHeReNHMHKaomZ-176" target="LKfAKdwHeReNHMHKaomZ-181" edge="1">
          <mxGeometry relative="1" as="geometry" />
        </mxCell>
        <mxCell id="LKfAKdwHeReNHMHKaomZ-185" value="&lt;span style=&quot;font-size: 18px;&quot;&gt;0&lt;/span&gt;" style="edgeLabel;html=1;align=center;verticalAlign=middle;resizable=0;points=[];fontSize=18;" parent="LKfAKdwHeReNHMHKaomZ-182" vertex="1" connectable="0">
          <mxGeometry x="-0.1475" y="4" relative="1" as="geometry">
            <mxPoint as="offset" />
          </mxGeometry>
        </mxCell>
        <mxCell id="LKfAKdwHeReNHMHKaomZ-176" value="x21" style="rhombus;whiteSpace=wrap;html=1;fontSize=18;" parent="1" vertex="1">
          <mxGeometry x="1871" y="1060" width="80" height="80" as="geometry" />
        </mxCell>
        <mxCell id="LKfAKdwHeReNHMHKaomZ-180" style="edgeStyle=orthogonalEdgeStyle;rounded=0;orthogonalLoop=1;jettySize=auto;html=1;fontSize=18;" parent="1" source="LKfAKdwHeReNHMHKaomZ-178" edge="1">
          <mxGeometry relative="1" as="geometry">
            <mxPoint x="2151" y="950" as="targetPoint" />
          </mxGeometry>
        </mxCell>
        <mxCell id="LKfAKdwHeReNHMHKaomZ-178" value="y24" style="rounded=0;whiteSpace=wrap;html=1;fontSize=18;" parent="1" vertex="1">
          <mxGeometry x="2011" y="1070" width="120" height="60" as="geometry" />
        </mxCell>
        <mxCell id="LKfAKdwHeReNHMHKaomZ-186" style="edgeStyle=orthogonalEdgeStyle;rounded=0;orthogonalLoop=1;jettySize=auto;html=1;fontSize=18;" parent="1" source="LKfAKdwHeReNHMHKaomZ-181" edge="1">
          <mxGeometry relative="1" as="geometry">
            <mxPoint x="2021" y="1241" as="targetPoint" />
          </mxGeometry>
        </mxCell>
        <mxCell id="LKfAKdwHeReNHMHKaomZ-192" value="&lt;font style=&quot;font-size: 18px;&quot;&gt;1&lt;/font&gt;" style="edgeLabel;html=1;align=center;verticalAlign=middle;resizable=0;points=[];fontSize=18;" parent="LKfAKdwHeReNHMHKaomZ-186" vertex="1" connectable="0">
          <mxGeometry x="-0.0841" y="2" relative="1" as="geometry">
            <mxPoint as="offset" />
          </mxGeometry>
        </mxCell>
        <mxCell id="LKfAKdwHeReNHMHKaomZ-226" style="edgeStyle=orthogonalEdgeStyle;rounded=0;orthogonalLoop=1;jettySize=auto;html=1;fontSize=18;" parent="1" source="LKfAKdwHeReNHMHKaomZ-181" edge="1">
          <mxGeometry relative="1" as="geometry">
            <mxPoint x="1911" y="1390" as="targetPoint" />
          </mxGeometry>
        </mxCell>
        <mxCell id="LKfAKdwHeReNHMHKaomZ-227" value="0" style="edgeLabel;html=1;align=center;verticalAlign=middle;resizable=0;points=[];fontSize=18;" parent="LKfAKdwHeReNHMHKaomZ-226" vertex="1" connectable="0">
          <mxGeometry x="-0.3138" y="3" relative="1" as="geometry">
            <mxPoint as="offset" />
          </mxGeometry>
        </mxCell>
        <mxCell id="LKfAKdwHeReNHMHKaomZ-181" value="x22" style="rhombus;whiteSpace=wrap;html=1;fontSize=18;" parent="1" vertex="1">
          <mxGeometry x="1871" y="1201" width="80" height="80" as="geometry" />
        </mxCell>
        <mxCell id="LKfAKdwHeReNHMHKaomZ-190" style="edgeStyle=orthogonalEdgeStyle;rounded=0;orthogonalLoop=1;jettySize=auto;html=1;entryX=0;entryY=0.5;entryDx=0;entryDy=0;fontSize=18;" parent="1" source="LKfAKdwHeReNHMHKaomZ-187" target="LKfAKdwHeReNHMHKaomZ-188" edge="1">
          <mxGeometry relative="1" as="geometry" />
        </mxCell>
        <mxCell id="LKfAKdwHeReNHMHKaomZ-194" value="&lt;font style=&quot;font-size: 18px;&quot;&gt;1&lt;/font&gt;" style="edgeLabel;html=1;align=center;verticalAlign=middle;resizable=0;points=[];fontSize=18;" parent="LKfAKdwHeReNHMHKaomZ-190" vertex="1" connectable="0">
          <mxGeometry x="-0.0643" y="3" relative="1" as="geometry">
            <mxPoint as="offset" />
          </mxGeometry>
        </mxCell>
        <mxCell id="LKfAKdwHeReNHMHKaomZ-196" style="edgeStyle=orthogonalEdgeStyle;rounded=0;orthogonalLoop=1;jettySize=auto;html=1;fontSize=18;" parent="1" source="LKfAKdwHeReNHMHKaomZ-187" edge="1">
          <mxGeometry relative="1" as="geometry">
            <mxPoint x="2061" y="1320" as="targetPoint" />
          </mxGeometry>
        </mxCell>
        <mxCell id="LKfAKdwHeReNHMHKaomZ-221" value="0" style="edgeLabel;html=1;align=center;verticalAlign=middle;resizable=0;points=[];fontSize=18;" parent="LKfAKdwHeReNHMHKaomZ-196" vertex="1" connectable="0">
          <mxGeometry x="-0.3335" y="4" relative="1" as="geometry">
            <mxPoint as="offset" />
          </mxGeometry>
        </mxCell>
        <mxCell id="LKfAKdwHeReNHMHKaomZ-187" value="x23" style="rhombus;whiteSpace=wrap;html=1;fontSize=18;" parent="1" vertex="1">
          <mxGeometry x="2021" y="1201" width="80" height="80" as="geometry" />
        </mxCell>
        <mxCell id="LKfAKdwHeReNHMHKaomZ-195" style="edgeStyle=orthogonalEdgeStyle;rounded=0;orthogonalLoop=1;jettySize=auto;html=1;fontSize=18;" parent="1" source="LKfAKdwHeReNHMHKaomZ-188" edge="1">
          <mxGeometry relative="1" as="geometry">
            <mxPoint x="2151" y="1100" as="targetPoint" />
          </mxGeometry>
        </mxCell>
        <mxCell id="LKfAKdwHeReNHMHKaomZ-188" value="y25" style="rounded=0;whiteSpace=wrap;html=1;fontSize=18;" parent="1" vertex="1">
          <mxGeometry x="2141" y="1211" width="120" height="60" as="geometry" />
        </mxCell>
        <mxCell id="LKfAKdwHeReNHMHKaomZ-222" style="edgeStyle=orthogonalEdgeStyle;rounded=0;orthogonalLoop=1;jettySize=auto;html=1;fontSize=18;" parent="1" source="LKfAKdwHeReNHMHKaomZ-197" edge="1">
          <mxGeometry relative="1" as="geometry">
            <mxPoint x="2191" y="1350" as="targetPoint" />
          </mxGeometry>
        </mxCell>
        <mxCell id="LKfAKdwHeReNHMHKaomZ-197" value="y26" style="rounded=0;whiteSpace=wrap;html=1;fontSize=18;" parent="1" vertex="1">
          <mxGeometry x="2001" y="1320" width="120" height="60" as="geometry" />
        </mxCell>
        <mxCell id="LKfAKdwHeReNHMHKaomZ-201" value="2" style="ellipse;whiteSpace=wrap;html=1;aspect=fixed;fontSize=18;" parent="1" vertex="1">
          <mxGeometry x="700" y="740" width="80" height="80" as="geometry" />
        </mxCell>
        <mxCell id="LKfAKdwHeReNHMHKaomZ-202" value="3" style="ellipse;whiteSpace=wrap;html=1;aspect=fixed;fontSize=18;" parent="1" vertex="1">
          <mxGeometry x="545" y="980" width="60" height="60" as="geometry" />
        </mxCell>
        <mxCell id="LKfAKdwHeReNHMHKaomZ-203" value="4" style="ellipse;whiteSpace=wrap;html=1;aspect=fixed;fontSize=18;" parent="1" vertex="1">
          <mxGeometry x="770" y="1140" width="80" height="80" as="geometry" />
        </mxCell>
        <mxCell id="LKfAKdwHeReNHMHKaomZ-223" value="12" style="ellipse;whiteSpace=wrap;html=1;aspect=fixed;fontSize=18;" parent="1" vertex="1">
          <mxGeometry x="2191" y="1310" width="80" height="80" as="geometry" />
        </mxCell>
        <mxCell id="LKfAKdwHeReNHMHKaomZ-327" style="edgeStyle=orthogonalEdgeStyle;rounded=0;orthogonalLoop=1;jettySize=auto;html=1;fontSize=18;" parent="1" source="LKfAKdwHeReNHMHKaomZ-224" edge="1">
          <mxGeometry relative="1" as="geometry">
            <mxPoint x="1701" y="649.9999999999998" as="targetPoint" />
            <Array as="points">
              <mxPoint x="1331" y="620" />
              <mxPoint x="1681" y="620" />
              <mxPoint x="1681" y="650" />
            </Array>
          </mxGeometry>
        </mxCell>
        <mxCell id="LKfAKdwHeReNHMHKaomZ-224" value="10" style="ellipse;whiteSpace=wrap;html=1;aspect=fixed;fontSize=18;" parent="1" vertex="1">
          <mxGeometry x="1291" y="530" width="80" height="80" as="geometry" />
        </mxCell>
        <mxCell id="LKfAKdwHeReNHMHKaomZ-229" style="edgeStyle=orthogonalEdgeStyle;rounded=0;orthogonalLoop=1;jettySize=auto;html=1;entryX=0;entryY=0.5;entryDx=0;entryDy=0;fontSize=18;" parent="1" source="LKfAKdwHeReNHMHKaomZ-228" target="LKfAKdwHeReNHMHKaomZ-230" edge="1">
          <mxGeometry relative="1" as="geometry">
            <mxPoint x="2011" y="1430" as="targetPoint" />
          </mxGeometry>
        </mxCell>
        <mxCell id="LKfAKdwHeReNHMHKaomZ-236" value="&lt;font style=&quot;font-size: 18px;&quot;&gt;1&lt;/font&gt;" style="edgeLabel;html=1;align=center;verticalAlign=middle;resizable=0;points=[];fontSize=18;" parent="LKfAKdwHeReNHMHKaomZ-229" vertex="1" connectable="0">
          <mxGeometry x="-0.2233" y="2" relative="1" as="geometry">
            <mxPoint as="offset" />
          </mxGeometry>
        </mxCell>
        <mxCell id="LKfAKdwHeReNHMHKaomZ-246" style="edgeStyle=orthogonalEdgeStyle;rounded=0;orthogonalLoop=1;jettySize=auto;html=1;fontSize=18;" parent="1" source="LKfAKdwHeReNHMHKaomZ-228" edge="1">
          <mxGeometry relative="1" as="geometry">
            <mxPoint x="1911" y="1600" as="targetPoint" />
          </mxGeometry>
        </mxCell>
        <mxCell id="LKfAKdwHeReNHMHKaomZ-266" value="&lt;font style=&quot;font-size: 18px;&quot;&gt;0&lt;/font&gt;" style="edgeLabel;html=1;align=center;verticalAlign=middle;resizable=0;points=[];fontSize=18;" parent="LKfAKdwHeReNHMHKaomZ-246" vertex="1" connectable="0">
          <mxGeometry x="-0.2565" y="3" relative="1" as="geometry">
            <mxPoint as="offset" />
          </mxGeometry>
        </mxCell>
        <mxCell id="LKfAKdwHeReNHMHKaomZ-228" value="x24" style="rhombus;whiteSpace=wrap;html=1;fontSize=18;" parent="1" vertex="1">
          <mxGeometry x="1871" y="1390" width="80" height="80" as="geometry" />
        </mxCell>
        <mxCell id="LKfAKdwHeReNHMHKaomZ-235" style="edgeStyle=orthogonalEdgeStyle;rounded=0;orthogonalLoop=1;jettySize=auto;html=1;entryX=0;entryY=0.5;entryDx=0;entryDy=0;fontSize=18;" parent="1" source="LKfAKdwHeReNHMHKaomZ-230" target="LKfAKdwHeReNHMHKaomZ-234" edge="1">
          <mxGeometry relative="1" as="geometry" />
        </mxCell>
        <mxCell id="LKfAKdwHeReNHMHKaomZ-237" value="1" style="edgeLabel;html=1;align=center;verticalAlign=middle;resizable=0;points=[];fontSize=18;" parent="LKfAKdwHeReNHMHKaomZ-235" vertex="1" connectable="0">
          <mxGeometry x="-0.1407" y="2" relative="1" as="geometry">
            <mxPoint as="offset" />
          </mxGeometry>
        </mxCell>
        <mxCell id="LKfAKdwHeReNHMHKaomZ-239" style="edgeStyle=orthogonalEdgeStyle;rounded=0;orthogonalLoop=1;jettySize=auto;html=1;fontSize=18;" parent="1" source="LKfAKdwHeReNHMHKaomZ-230" edge="1">
          <mxGeometry relative="1" as="geometry">
            <mxPoint x="2061" y="1520" as="targetPoint" />
          </mxGeometry>
        </mxCell>
        <mxCell id="LKfAKdwHeReNHMHKaomZ-240" value="&lt;font style=&quot;font-size: 18px;&quot;&gt;0&lt;/font&gt;" style="edgeLabel;html=1;align=center;verticalAlign=middle;resizable=0;points=[];fontSize=18;" parent="LKfAKdwHeReNHMHKaomZ-239" vertex="1" connectable="0">
          <mxGeometry x="-0.3227" y="2" relative="1" as="geometry">
            <mxPoint as="offset" />
          </mxGeometry>
        </mxCell>
        <mxCell id="LKfAKdwHeReNHMHKaomZ-230" value="x25" style="rhombus;whiteSpace=wrap;html=1;fontSize=18;" parent="1" vertex="1">
          <mxGeometry x="2021" y="1390" width="80" height="80" as="geometry" />
        </mxCell>
        <mxCell id="LKfAKdwHeReNHMHKaomZ-238" style="edgeStyle=orthogonalEdgeStyle;rounded=0;orthogonalLoop=1;jettySize=auto;html=1;fontSize=18;" parent="1" source="LKfAKdwHeReNHMHKaomZ-234" edge="1">
          <mxGeometry relative="1" as="geometry">
            <mxPoint x="2201" y="1190" as="targetPoint" />
            <Array as="points">
              <mxPoint x="2311" y="1430" />
              <mxPoint x="2311" y="1190" />
            </Array>
          </mxGeometry>
        </mxCell>
        <mxCell id="LKfAKdwHeReNHMHKaomZ-234" value="y27" style="rounded=0;whiteSpace=wrap;html=1;fontSize=18;" parent="1" vertex="1">
          <mxGeometry x="2141" y="1400" width="120" height="60" as="geometry" />
        </mxCell>
        <mxCell id="LKfAKdwHeReNHMHKaomZ-242" style="edgeStyle=orthogonalEdgeStyle;rounded=0;orthogonalLoop=1;jettySize=auto;html=1;fontSize=18;" parent="1" source="LKfAKdwHeReNHMHKaomZ-241" edge="1">
          <mxGeometry relative="1" as="geometry">
            <mxPoint x="2191" y="1550" as="targetPoint" />
          </mxGeometry>
        </mxCell>
        <mxCell id="LKfAKdwHeReNHMHKaomZ-241" value="y28" style="rounded=0;whiteSpace=wrap;html=1;fontSize=18;" parent="1" vertex="1">
          <mxGeometry x="2001" y="1520" width="120" height="60" as="geometry" />
        </mxCell>
        <mxCell id="LKfAKdwHeReNHMHKaomZ-243" value="13" style="ellipse;whiteSpace=wrap;html=1;aspect=fixed;fontSize=18;" parent="1" vertex="1">
          <mxGeometry x="2191" y="1510" width="80" height="80" as="geometry" />
        </mxCell>
        <mxCell id="LKfAKdwHeReNHMHKaomZ-328" style="edgeStyle=orthogonalEdgeStyle;rounded=0;orthogonalLoop=1;jettySize=auto;html=1;fontSize=18;" parent="1" source="LKfAKdwHeReNHMHKaomZ-244" edge="1">
          <mxGeometry relative="1" as="geometry">
            <mxPoint x="1391" y="619.9999999999998" as="targetPoint" />
          </mxGeometry>
        </mxCell>
        <mxCell id="LKfAKdwHeReNHMHKaomZ-244" value="12" style="ellipse;whiteSpace=wrap;html=1;aspect=fixed;fontSize=18;" parent="1" vertex="1">
          <mxGeometry x="1290" y="625" width="80" height="80" as="geometry" />
        </mxCell>
        <mxCell id="LKfAKdwHeReNHMHKaomZ-265" style="edgeStyle=orthogonalEdgeStyle;rounded=0;orthogonalLoop=1;jettySize=auto;html=1;entryX=0;entryY=0.5;entryDx=0;entryDy=0;fontSize=18;" parent="1" source="LKfAKdwHeReNHMHKaomZ-247" target="LKfAKdwHeReNHMHKaomZ-260" edge="1">
          <mxGeometry relative="1" as="geometry" />
        </mxCell>
        <mxCell id="LKfAKdwHeReNHMHKaomZ-267" value="1" style="edgeLabel;html=1;align=center;verticalAlign=middle;resizable=0;points=[];fontSize=18;" parent="LKfAKdwHeReNHMHKaomZ-265" vertex="1" connectable="0">
          <mxGeometry x="-0.1014" y="3" relative="1" as="geometry">
            <mxPoint as="offset" />
          </mxGeometry>
        </mxCell>
        <mxCell id="LKfAKdwHeReNHMHKaomZ-272" style="edgeStyle=orthogonalEdgeStyle;rounded=0;orthogonalLoop=1;jettySize=auto;html=1;fontSize=18;" parent="1" source="LKfAKdwHeReNHMHKaomZ-247" edge="1">
          <mxGeometry relative="1" as="geometry">
            <mxPoint x="1911" y="1860" as="targetPoint" />
          </mxGeometry>
        </mxCell>
        <mxCell id="LKfAKdwHeReNHMHKaomZ-273" value="&lt;font style=&quot;font-size: 18px;&quot;&gt;0&lt;/font&gt;" style="edgeLabel;html=1;align=center;verticalAlign=middle;resizable=0;points=[];fontSize=18;" parent="LKfAKdwHeReNHMHKaomZ-272" vertex="1" connectable="0">
          <mxGeometry x="-0.456" y="3" relative="1" as="geometry">
            <mxPoint as="offset" />
          </mxGeometry>
        </mxCell>
        <mxCell id="LKfAKdwHeReNHMHKaomZ-247" value="x26" style="rhombus;whiteSpace=wrap;html=1;fontSize=18;" parent="1" vertex="1">
          <mxGeometry x="1871" y="1600" width="80" height="80" as="geometry" />
        </mxCell>
        <mxCell id="LKfAKdwHeReNHMHKaomZ-256" style="edgeStyle=orthogonalEdgeStyle;rounded=0;orthogonalLoop=1;jettySize=auto;html=1;entryX=0;entryY=0.5;entryDx=0;entryDy=0;fontSize=18;" parent="1" source="LKfAKdwHeReNHMHKaomZ-260" target="LKfAKdwHeReNHMHKaomZ-261" edge="1">
          <mxGeometry relative="1" as="geometry" />
        </mxCell>
        <mxCell id="LKfAKdwHeReNHMHKaomZ-257" value="1" style="edgeLabel;html=1;align=center;verticalAlign=middle;resizable=0;points=[];fontSize=18;" parent="LKfAKdwHeReNHMHKaomZ-256" vertex="1" connectable="0">
          <mxGeometry x="-0.1407" y="2" relative="1" as="geometry">
            <mxPoint as="offset" />
          </mxGeometry>
        </mxCell>
        <mxCell id="LKfAKdwHeReNHMHKaomZ-258" style="edgeStyle=orthogonalEdgeStyle;rounded=0;orthogonalLoop=1;jettySize=auto;html=1;entryX=0.5;entryY=0;entryDx=0;entryDy=0;fontSize=18;" parent="1" source="LKfAKdwHeReNHMHKaomZ-260" target="LKfAKdwHeReNHMHKaomZ-263" edge="1">
          <mxGeometry relative="1" as="geometry">
            <mxPoint x="2051" y="1730" as="targetPoint" />
            <Array as="points" />
          </mxGeometry>
        </mxCell>
        <mxCell id="LKfAKdwHeReNHMHKaomZ-259" value="&lt;font style=&quot;font-size: 18px;&quot;&gt;0&lt;/font&gt;" style="edgeLabel;html=1;align=center;verticalAlign=middle;resizable=0;points=[];fontSize=18;" parent="LKfAKdwHeReNHMHKaomZ-258" vertex="1" connectable="0">
          <mxGeometry x="-0.3227" y="2" relative="1" as="geometry">
            <mxPoint as="offset" />
          </mxGeometry>
        </mxCell>
        <mxCell id="LKfAKdwHeReNHMHKaomZ-260" value="x27" style="rhombus;whiteSpace=wrap;html=1;fontSize=18;" parent="1" vertex="1">
          <mxGeometry x="2021" y="1600" width="80" height="80" as="geometry" />
        </mxCell>
        <mxCell id="LKfAKdwHeReNHMHKaomZ-268" style="edgeStyle=orthogonalEdgeStyle;rounded=0;orthogonalLoop=1;jettySize=auto;html=1;fontSize=18;" parent="1" source="LKfAKdwHeReNHMHKaomZ-261" edge="1">
          <mxGeometry relative="1" as="geometry">
            <mxPoint x="2311" y="1430" as="targetPoint" />
          </mxGeometry>
        </mxCell>
        <mxCell id="LKfAKdwHeReNHMHKaomZ-261" value="y29" style="rounded=0;whiteSpace=wrap;html=1;fontSize=18;" parent="1" vertex="1">
          <mxGeometry x="2141" y="1610" width="120" height="60" as="geometry" />
        </mxCell>
        <mxCell id="LKfAKdwHeReNHMHKaomZ-262" style="edgeStyle=orthogonalEdgeStyle;rounded=0;orthogonalLoop=1;jettySize=auto;html=1;entryX=0;entryY=0.5;entryDx=0;entryDy=0;fontSize=18;" parent="1" source="LKfAKdwHeReNHMHKaomZ-263" target="LKfAKdwHeReNHMHKaomZ-264" edge="1">
          <mxGeometry relative="1" as="geometry">
            <mxPoint x="2181" y="1760" as="targetPoint" />
          </mxGeometry>
        </mxCell>
        <mxCell id="LKfAKdwHeReNHMHKaomZ-263" value="y30" style="rounded=0;whiteSpace=wrap;html=1;fontSize=18;" parent="1" vertex="1">
          <mxGeometry x="2001" y="1730" width="120" height="60" as="geometry" />
        </mxCell>
        <mxCell id="LKfAKdwHeReNHMHKaomZ-264" value="14" style="ellipse;whiteSpace=wrap;html=1;aspect=fixed;fontSize=18;" parent="1" vertex="1">
          <mxGeometry x="2191" y="1720" width="80" height="80" as="geometry" />
        </mxCell>
        <mxCell id="LKfAKdwHeReNHMHKaomZ-329" style="edgeStyle=orthogonalEdgeStyle;rounded=0;orthogonalLoop=1;jettySize=auto;html=1;fontSize=18;" parent="1" source="LKfAKdwHeReNHMHKaomZ-270" edge="1">
          <mxGeometry relative="1" as="geometry">
            <mxPoint x="1411" y="619.9999999999998" as="targetPoint" />
          </mxGeometry>
        </mxCell>
        <mxCell id="LKfAKdwHeReNHMHKaomZ-270" value="13" style="ellipse;whiteSpace=wrap;html=1;aspect=fixed;fontSize=18;" parent="1" vertex="1">
          <mxGeometry x="1290" y="717" width="80" height="80" as="geometry" />
        </mxCell>
        <mxCell id="LKfAKdwHeReNHMHKaomZ-286" style="edgeStyle=orthogonalEdgeStyle;rounded=0;orthogonalLoop=1;jettySize=auto;html=1;entryX=0;entryY=0.5;entryDx=0;entryDy=0;fontSize=18;" parent="1" source="LKfAKdwHeReNHMHKaomZ-274" target="LKfAKdwHeReNHMHKaomZ-281" edge="1">
          <mxGeometry relative="1" as="geometry" />
        </mxCell>
        <mxCell id="LKfAKdwHeReNHMHKaomZ-291" value="&lt;font style=&quot;font-size: 18px;&quot;&gt;1&lt;/font&gt;" style="edgeLabel;html=1;align=center;verticalAlign=middle;resizable=0;points=[];fontSize=18;" parent="LKfAKdwHeReNHMHKaomZ-286" vertex="1" connectable="0">
          <mxGeometry x="-0.0887" y="4" relative="1" as="geometry">
            <mxPoint as="offset" />
          </mxGeometry>
        </mxCell>
        <mxCell id="LKfAKdwHeReNHMHKaomZ-289" style="edgeStyle=orthogonalEdgeStyle;rounded=0;orthogonalLoop=1;jettySize=auto;html=1;fontSize=18;" parent="1" source="LKfAKdwHeReNHMHKaomZ-274" target="LKfAKdwHeReNHMHKaomZ-285" edge="1">
          <mxGeometry relative="1" as="geometry" />
        </mxCell>
        <mxCell id="LKfAKdwHeReNHMHKaomZ-292" value="&lt;font style=&quot;font-size: 18px;&quot;&gt;0&lt;/font&gt;" style="edgeLabel;html=1;align=center;verticalAlign=middle;resizable=0;points=[];fontSize=18;" parent="LKfAKdwHeReNHMHKaomZ-289" vertex="1" connectable="0">
          <mxGeometry x="-0.315" y="1" relative="1" as="geometry">
            <mxPoint as="offset" />
          </mxGeometry>
        </mxCell>
        <mxCell id="LKfAKdwHeReNHMHKaomZ-274" value="x28" style="rhombus;whiteSpace=wrap;html=1;fontSize=18;" parent="1" vertex="1">
          <mxGeometry x="1871" y="1860" width="80" height="80" as="geometry" />
        </mxCell>
        <mxCell id="LKfAKdwHeReNHMHKaomZ-277" style="edgeStyle=orthogonalEdgeStyle;rounded=0;orthogonalLoop=1;jettySize=auto;html=1;entryX=0;entryY=0.5;entryDx=0;entryDy=0;fontSize=18;" parent="1" source="LKfAKdwHeReNHMHKaomZ-281" target="LKfAKdwHeReNHMHKaomZ-282" edge="1">
          <mxGeometry relative="1" as="geometry" />
        </mxCell>
        <mxCell id="LKfAKdwHeReNHMHKaomZ-278" value="1" style="edgeLabel;html=1;align=center;verticalAlign=middle;resizable=0;points=[];fontSize=18;" parent="LKfAKdwHeReNHMHKaomZ-277" vertex="1" connectable="0">
          <mxGeometry x="-0.1407" y="2" relative="1" as="geometry">
            <mxPoint as="offset" />
          </mxGeometry>
        </mxCell>
        <mxCell id="LKfAKdwHeReNHMHKaomZ-279" style="edgeStyle=orthogonalEdgeStyle;rounded=0;orthogonalLoop=1;jettySize=auto;html=1;entryX=0.5;entryY=0;entryDx=0;entryDy=0;fontSize=18;" parent="1" source="LKfAKdwHeReNHMHKaomZ-281" target="LKfAKdwHeReNHMHKaomZ-284" edge="1">
          <mxGeometry relative="1" as="geometry">
            <mxPoint x="2039.42" y="1990" as="targetPoint" />
            <Array as="points" />
          </mxGeometry>
        </mxCell>
        <mxCell id="LKfAKdwHeReNHMHKaomZ-280" value="&lt;font style=&quot;font-size: 18px;&quot;&gt;0&lt;/font&gt;" style="edgeLabel;html=1;align=center;verticalAlign=middle;resizable=0;points=[];fontSize=18;" parent="LKfAKdwHeReNHMHKaomZ-279" vertex="1" connectable="0">
          <mxGeometry x="-0.3227" y="2" relative="1" as="geometry">
            <mxPoint as="offset" />
          </mxGeometry>
        </mxCell>
        <mxCell id="LKfAKdwHeReNHMHKaomZ-281" value="x29" style="rhombus;whiteSpace=wrap;html=1;fontSize=18;" parent="1" vertex="1">
          <mxGeometry x="2021" y="1860" width="80" height="80" as="geometry" />
        </mxCell>
        <mxCell id="LKfAKdwHeReNHMHKaomZ-287" style="edgeStyle=orthogonalEdgeStyle;rounded=0;orthogonalLoop=1;jettySize=auto;html=1;fontSize=18;" parent="1" source="LKfAKdwHeReNHMHKaomZ-282" edge="1">
          <mxGeometry relative="1" as="geometry">
            <mxPoint x="2311" y="1640" as="targetPoint" />
          </mxGeometry>
        </mxCell>
        <mxCell id="LKfAKdwHeReNHMHKaomZ-282" value="y31" style="rounded=0;whiteSpace=wrap;html=1;fontSize=18;" parent="1" vertex="1">
          <mxGeometry x="2141" y="1870" width="120" height="60" as="geometry" />
        </mxCell>
        <mxCell id="LKfAKdwHeReNHMHKaomZ-290" style="edgeStyle=orthogonalEdgeStyle;rounded=0;orthogonalLoop=1;jettySize=auto;html=1;fontSize=18;" parent="1" source="LKfAKdwHeReNHMHKaomZ-284" edge="1">
          <mxGeometry relative="1" as="geometry">
            <mxPoint x="1911" y="2020" as="targetPoint" />
          </mxGeometry>
        </mxCell>
        <mxCell id="LKfAKdwHeReNHMHKaomZ-284" value="y32" style="rounded=0;whiteSpace=wrap;html=1;fontSize=18;" parent="1" vertex="1">
          <mxGeometry x="2001" y="1990" width="120" height="60" as="geometry" />
        </mxCell>
        <mxCell id="LKfAKdwHeReNHMHKaomZ-285" value="15" style="ellipse;whiteSpace=wrap;html=1;aspect=fixed;fontSize=18;" parent="1" vertex="1">
          <mxGeometry x="1871" y="2068" width="80" height="80" as="geometry" />
        </mxCell>
        <mxCell id="LKfAKdwHeReNHMHKaomZ-330" style="edgeStyle=orthogonalEdgeStyle;rounded=0;orthogonalLoop=1;jettySize=auto;html=1;fontSize=18;" parent="1" source="LKfAKdwHeReNHMHKaomZ-293" edge="1">
          <mxGeometry relative="1" as="geometry">
            <mxPoint x="1441" y="619.9999999999998" as="targetPoint" />
          </mxGeometry>
        </mxCell>
        <mxCell id="LKfAKdwHeReNHMHKaomZ-293" value="14" style="ellipse;whiteSpace=wrap;html=1;aspect=fixed;fontSize=18;" parent="1" vertex="1">
          <mxGeometry x="1290" y="810" width="80" height="80" as="geometry" />
        </mxCell>
        <mxCell id="LKfAKdwHeReNHMHKaomZ-299" value="S1" style="text;html=1;align=center;verticalAlign=middle;whiteSpace=wrap;rounded=0;fontStyle=3;fontColor=#f80d0d;labelBorderColor=none;fontSize=18;" parent="1" vertex="1">
          <mxGeometry x="340" y="290" width="60" height="30" as="geometry" />
        </mxCell>
        <mxCell id="LKfAKdwHeReNHMHKaomZ-300" value="S0" style="text;html=1;align=center;verticalAlign=middle;whiteSpace=wrap;rounded=0;fontStyle=3;fontColor=#f80d0d;labelBorderColor=none;fontSize=18;" parent="1" vertex="1">
          <mxGeometry x="340" y="180" width="60" height="30" as="geometry" />
        </mxCell>
        <mxCell id="LKfAKdwHeReNHMHKaomZ-301" value="S2" style="text;html=1;align=center;verticalAlign=middle;whiteSpace=wrap;rounded=0;fontStyle=3;fontColor=#f80d0d;labelBorderColor=none;fontSize=18;" parent="1" vertex="1">
          <mxGeometry x="320" y="399" width="60" height="30" as="geometry" />
        </mxCell>
        <mxCell id="LKfAKdwHeReNHMHKaomZ-303" value="S3" style="text;html=1;align=center;verticalAlign=middle;whiteSpace=wrap;rounded=0;fontStyle=3;fontColor=#f80d0d;labelBorderColor=none;fontSize=18;" parent="1" vertex="1">
          <mxGeometry x="320" y="650" width="60" height="30" as="geometry" />
        </mxCell>
        <mxCell id="LKfAKdwHeReNHMHKaomZ-305" value="S5" style="text;html=1;align=center;verticalAlign=middle;whiteSpace=wrap;rounded=0;fontStyle=3;fontColor=#f80d0d;labelBorderColor=none;fontSize=18;" parent="1" vertex="1">
          <mxGeometry x="585" y="797" width="60" height="30" as="geometry" />
        </mxCell>
        <mxCell id="LKfAKdwHeReNHMHKaomZ-306" value="S4" style="text;html=1;align=center;verticalAlign=middle;whiteSpace=wrap;rounded=0;fontStyle=3;fontColor=#f80d0d;labelBorderColor=none;fontSize=18;" parent="1" vertex="1">
          <mxGeometry x="520" y="1460" width="60" height="30" as="geometry" />
        </mxCell>
        <mxCell id="LKfAKdwHeReNHMHKaomZ-307" value="S6" style="text;html=1;align=center;verticalAlign=middle;whiteSpace=wrap;rounded=0;fontStyle=3;fontColor=#f80d0d;labelBorderColor=none;fontSize=18;" parent="1" vertex="1">
          <mxGeometry x="260" y="1070" width="60" height="30" as="geometry" />
        </mxCell>
        <mxCell id="LKfAKdwHeReNHMHKaomZ-313" style="edgeStyle=orthogonalEdgeStyle;rounded=0;orthogonalLoop=1;jettySize=auto;html=1;fontSize=18;" parent="1" source="LKfAKdwHeReNHMHKaomZ-309" edge="1">
          <mxGeometry relative="1" as="geometry">
            <mxPoint x="509.9999999999998" y="1450" as="targetPoint" />
          </mxGeometry>
        </mxCell>
        <mxCell id="LKfAKdwHeReNHMHKaomZ-309" value="2" style="ellipse;whiteSpace=wrap;html=1;aspect=fixed;fontSize=18;" parent="1" vertex="1">
          <mxGeometry x="190" y="1410" width="80" height="80" as="geometry" />
        </mxCell>
        <mxCell id="LKfAKdwHeReNHMHKaomZ-314" style="edgeStyle=orthogonalEdgeStyle;rounded=0;orthogonalLoop=1;jettySize=auto;html=1;fontSize=18;" parent="1" source="LKfAKdwHeReNHMHKaomZ-310" edge="1">
          <mxGeometry relative="1" as="geometry">
            <mxPoint x="299.9999999999998" y="1450" as="targetPoint" />
          </mxGeometry>
        </mxCell>
        <mxCell id="LKfAKdwHeReNHMHKaomZ-310" value="3" style="ellipse;whiteSpace=wrap;html=1;aspect=fixed;fontSize=18;" parent="1" vertex="1">
          <mxGeometry x="190" y="1500" width="80" height="80" as="geometry" />
        </mxCell>
        <mxCell id="LKfAKdwHeReNHMHKaomZ-315" style="edgeStyle=orthogonalEdgeStyle;rounded=0;orthogonalLoop=1;jettySize=auto;html=1;fontSize=18;" parent="1" source="LKfAKdwHeReNHMHKaomZ-311" edge="1">
          <mxGeometry relative="1" as="geometry">
            <mxPoint x="329.9999999999998" y="1450" as="targetPoint" />
          </mxGeometry>
        </mxCell>
        <mxCell id="LKfAKdwHeReNHMHKaomZ-311" value="4" style="ellipse;whiteSpace=wrap;html=1;aspect=fixed;fontSize=18;" parent="1" vertex="1">
          <mxGeometry x="190" y="1590" width="80" height="80" as="geometry" />
        </mxCell>
        <mxCell id="LKfAKdwHeReNHMHKaomZ-316" style="edgeStyle=orthogonalEdgeStyle;rounded=0;orthogonalLoop=1;jettySize=auto;html=1;fontSize=18;" parent="1" source="LKfAKdwHeReNHMHKaomZ-312" edge="1">
          <mxGeometry relative="1" as="geometry">
            <mxPoint x="369.9999999999998" y="1450" as="targetPoint" />
          </mxGeometry>
        </mxCell>
        <mxCell id="LKfAKdwHeReNHMHKaomZ-312" value="5" style="ellipse;whiteSpace=wrap;html=1;aspect=fixed;" parent="1" vertex="1">
          <mxGeometry x="190" y="1680" width="80" height="80" as="geometry" />
        </mxCell>
        <mxCell id="LKfAKdwHeReNHMHKaomZ-317" value="S7" style="text;html=1;align=center;verticalAlign=middle;whiteSpace=wrap;rounded=0;fontStyle=3;fontColor=#f80d0d;labelBorderColor=none;fontSize=18;" parent="1" vertex="1">
          <mxGeometry x="1631" y="399" width="60" height="30" as="geometry" />
        </mxCell>
        <mxCell id="LKfAKdwHeReNHMHKaomZ-318" value="S0" style="text;html=1;align=center;verticalAlign=middle;whiteSpace=wrap;rounded=0;fontStyle=3;fontColor=#f80d0d;labelBorderColor=none;fontSize=18;" parent="1" vertex="1">
          <mxGeometry x="1701" y="950" width="60" height="30" as="geometry" />
        </mxCell>
        <mxCell id="LKfAKdwHeReNHMHKaomZ-319" value="S8" style="text;html=1;align=center;verticalAlign=middle;whiteSpace=wrap;rounded=0;fontStyle=3;fontColor=#f80d0d;labelBorderColor=none;fontSize=18;" parent="1" vertex="1">
          <mxGeometry x="1701" y="670" width="60" height="30" as="geometry" />
        </mxCell>
        <mxCell id="LKfAKdwHeReNHMHKaomZ-333" style="edgeStyle=orthogonalEdgeStyle;rounded=0;orthogonalLoop=1;jettySize=auto;html=1;fontSize=18;" parent="1" source="LKfAKdwHeReNHMHKaomZ-320" edge="1">
          <mxGeometry relative="1" as="geometry">
            <mxPoint x="1391" y="1010" as="targetPoint" />
          </mxGeometry>
        </mxCell>
        <mxCell id="LKfAKdwHeReNHMHKaomZ-320" value="11" style="ellipse;whiteSpace=wrap;html=1;aspect=fixed;fontSize=18;" parent="1" vertex="1">
          <mxGeometry x="1290" y="1080" width="80" height="80" as="geometry" />
        </mxCell>
        <mxCell id="LKfAKdwHeReNHMHKaomZ-331" style="edgeStyle=orthogonalEdgeStyle;rounded=0;orthogonalLoop=1;jettySize=auto;html=1;fontSize=18;" parent="1" source="LKfAKdwHeReNHMHKaomZ-326" edge="1">
          <mxGeometry relative="1" as="geometry">
            <mxPoint x="1461" y="619.9999999999998" as="targetPoint" />
          </mxGeometry>
        </mxCell>
        <mxCell id="LKfAKdwHeReNHMHKaomZ-326" value="15" style="ellipse;whiteSpace=wrap;html=1;aspect=fixed;fontSize=18;" parent="1" vertex="1">
          <mxGeometry x="1290" y="900" width="80" height="80" as="geometry" />
        </mxCell>
        <mxCell id="LKfAKdwHeReNHMHKaomZ-335" value="10" style="ellipse;whiteSpace=wrap;html=1;aspect=fixed;fontSize=18;" parent="1" vertex="1">
          <mxGeometry x="2181" y="680" width="80" height="80" as="geometry" />
        </mxCell>
      </root>
    </mxGraphModel>
  </diagram>
</mxfile>
